<svg xmlns="http://www.w3.org/2000/svg" xmlns:xlink="http://www.w3.org/1999/xlink" viewBox="0 0 126.17 126.17"><defs><style>.cls-1{fill:url(#무제_그라디언트_7);}.cls-2{fill:url(#무제_그라디언트_7-2);}.cls-3{fill:url(#무제_그라디언트_7-3);}.cls-4{fill:url(#무제_그라디언트_7-4);}.cls-5{fill:url(#무제_그라디언트_7-5);}.cls-6{fill:url(#무제_그라디언트_7-6);}.cls-7{fill:url(#무제_그라디언트_7-7);}.cls-8{fill:url(#무제_그라디언트_7-8);}.cls-9{fill:url(#무제_그라디언트_7-9);}.cls-10{fill:url(#무제_그라디언트_7-10);}.cls-11{fill:url(#무제_그라디언트_7-11);}.cls-12{fill:url(#무제_그라디언트_7-12);}.cls-13{fill:url(#무제_그라디언트_7-13);}.cls-14{fill:url(#무제_그라디언트_7-14);}.cls-15{fill:url(#무제_그라디언트_7-15);}.cls-16{fill:url(#무제_그라디언트_7-16);}.cls-17{fill:url(#무제_그라디언트_7-17);}.cls-18{fill:url(#무제_그라디언트_7-18);}.cls-19{fill:url(#무제_그라디언트_7-19);}.cls-20{fill:url(#무제_그라디언트_7-20);}.cls-21{fill:url(#무제_그라디언트_7-21);}.cls-22{fill:url(#무제_그라디언트_7-22);}.cls-23{fill:url(#무제_그라디언트_7-23);}.cls-24{fill:url(#무제_그라디언트_7-24);}.cls-25{fill:url(#무제_그라디언트_7-25);}.cls-26{fill:url(#무제_그라디언트_7-26);}.cls-27{fill:url(#무제_그라디언트_7-27);}.cls-28{fill:url(#무제_그라디언트_7-28);}.cls-29{fill:url(#무제_그라디언트_7-29);}.cls-30{fill:url(#무제_그라디언트_7-30);}.cls-31{fill:url(#무제_그라디언트_7-31);}.cls-32{fill:url(#무제_그라디언트_7-32);}.cls-33{fill:url(#무제_그라디언트_7-33);}.cls-34{fill:url(#무제_그라디언트_7-34);}.cls-35{fill:url(#무제_그라디언트_7-35);}.cls-36{fill:url(#무제_그라디언트_7-36);}.cls-37,.cls-38,.cls-39{fill:none;stroke:#fff;stroke-miterlimit:10;stroke-width:2.4px;}.cls-37{opacity:0.1;}.cls-38{opacity:0.4;}.cls-40{fill:#a0a0a0;}.cls-41{fill:#b3b3b3;}.cls-42{fill:#c9c9c9;}.cls-43{fill:#787878;}.cls-44{fill:#d3d3d3;}.cls-45{fill:#cacaca;}.cls-46{fill:#686868;}</style><linearGradient id="무제_그라디언트_7" x1="63.1" y1="-12.99" x2="63.1" y2="165.25" gradientUnits="userSpaceOnUse"><stop offset="0" stop-color="#fff"/><stop offset="1" stop-color="#fff" stop-opacity="0"/></linearGradient><linearGradient id="무제_그라디언트_7-2" x1="52.61" y1="-12.99" x2="52.61" y2="165.25" gradientTransform="translate(1.42 -9.08) rotate(10)" xlink:href="#무제_그라디언트_7"/><linearGradient id="무제_그라디언트_7-3" x1="42.44" y1="-12.99" x2="42.44" y2="165.25" gradientTransform="translate(4.72 -14.13) rotate(20)" xlink:href="#무제_그라디언트_7"/><linearGradient id="무제_그라디언트_7-4" x1="32.89" y1="-12.99" x2="32.89" y2="165.25" gradientTransform="translate(9.78 -15) rotate(30)" xlink:href="#무제_그라디언트_7"/><linearGradient id="무제_그라디언트_7-5" x1="24.26" y1="-12.99" x2="24.26" y2="165.25" gradientTransform="translate(16.47 -11.67) rotate(40)" xlink:href="#무제_그라디언트_7"/><linearGradient id="무제_그라디언트_7-6" x1="16.81" y1="-12.99" x2="16.81" y2="165.25" gradientTransform="translate(24.57 -4.22) rotate(50)" xlink:href="#무제_그라디언트_7"/><linearGradient id="무제_그라디언트_7-7" x1="10.77" y1="-12.99" x2="10.77" y2="165.25" gradientTransform="translate(33.84 7.1) rotate(60)" xlink:href="#무제_그라디언트_7"/><linearGradient id="무제_그라디언트_7-8" x1="6.32" y1="-12.99" x2="6.32" y2="165.25" gradientTransform="translate(44 21.96) rotate(70)" xlink:href="#무제_그라디언트_7"/><linearGradient id="무제_그라디언트_7-9" x1="3.59" y1="-12.99" x2="3.59" y2="165.25" gradientTransform="translate(54.74 39.91) rotate(80)" xlink:href="#무제_그라디언트_7"/><linearGradient id="무제_그라디언트_7-10" x1="2.67" y1="-12.99" x2="2.67" y2="165.25" gradientTransform="translate(65.73 60.4) rotate(90)" xlink:href="#무제_그라디언트_7"/><linearGradient id="무제_그라디언트_7-11" x1="3.58" y1="-12.99" x2="3.58" y2="165.25" gradientTransform="translate(76.64 82.8) rotate(100)" xlink:href="#무제_그라디언트_7"/><linearGradient id="무제_그라디언트_7-12" x1="6.31" y1="-12.99" x2="6.31" y2="165.25" gradientTransform="translate(87.14 106.44) rotate(110)" xlink:href="#무제_그라디언트_7"/><linearGradient id="무제_그라디언트_7-13" x1="10.75" y1="-12.99" x2="10.75" y2="165.25" gradientTransform="translate(96.91 130.6) rotate(120)" xlink:href="#무제_그라디언트_7"/><linearGradient id="무제_그라디언트_7-14" x1="16.79" y1="-12.99" x2="16.79" y2="165.25" gradientTransform="translate(105.65 154.54) rotate(130)" xlink:href="#무제_그라디언트_7"/><linearGradient id="무제_그라디언트_7-15" x1="24.24" y1="-12.99" x2="24.24" y2="165.25" gradientTransform="translate(113.09 177.54) rotate(140)" xlink:href="#무제_그라디언트_7"/><linearGradient id="무제_그라디언트_7-16" x1="32.86" y1="-12.99" x2="32.86" y2="165.25" gradientTransform="translate(119.02 198.9) rotate(150)" xlink:href="#무제_그라디언트_7"/><linearGradient id="무제_그라디언트_7-17" x1="42.4" y1="-12.99" x2="42.4" y2="165.25" gradientTransform="translate(123.24 217.97) rotate(160)" xlink:href="#무제_그라디언트_7"/><linearGradient id="무제_그라디언트_7-18" x1="52.58" y1="-12.99" x2="52.58" y2="165.25" gradientTransform="translate(125.64 234.16) rotate(170)" xlink:href="#무제_그라디언트_7"/><linearGradient id="무제_그라디언트_7-19" x1="63.07" y1="-12.99" x2="63.07" y2="165.25" gradientTransform="translate(126.13 247) rotate(-180)" xlink:href="#무제_그라디언트_7"/><linearGradient id="무제_그라디언트_7-20" x1="73.56" y1="-12.99" x2="73.56" y2="165.25" gradientTransform="translate(124.71 256.08) rotate(-170)" xlink:href="#무제_그라디언트_7"/><linearGradient id="무제_그라디언트_7-21" x1="83.73" y1="-12.99" x2="83.73" y2="165.25" gradientTransform="translate(121.42 261.13) rotate(-160)" xlink:href="#무제_그라디언트_7"/><linearGradient id="무제_그라디언트_7-22" x1="93.28" y1="-12.99" x2="93.28" y2="165.25" gradientTransform="translate(116.35 262) rotate(-150)" xlink:href="#무제_그라디언트_7"/><linearGradient id="무제_그라디언트_7-23" x1="101.9" y1="-12.99" x2="101.9" y2="165.25" gradientTransform="translate(109.66 258.67) rotate(-140)" xlink:href="#무제_그라디언트_7"/><linearGradient id="무제_그라디언트_7-24" x1="109.35" y1="-12.99" x2="109.35" y2="165.25" gradientTransform="translate(101.56 251.22) rotate(-130)" xlink:href="#무제_그라디언트_7"/><linearGradient id="무제_그라디언트_7-25" x1="115.4" y1="-12.99" x2="115.4" y2="165.25" gradientTransform="translate(92.29 239.9) rotate(-120)" xlink:href="#무제_그라디언트_7"/><linearGradient id="무제_그라디언트_7-26" x1="119.85" y1="-12.99" x2="119.85" y2="165.25" gradientTransform="translate(82.13 225.03) rotate(-110)" xlink:href="#무제_그라디언트_7"/><linearGradient id="무제_그라디언트_7-27" x1="122.58" y1="-12.99" x2="122.58" y2="165.25" gradientTransform="translate(71.39 207.09) rotate(-100)" xlink:href="#무제_그라디언트_7"/><linearGradient id="무제_그라디언트_7-28" x1="123.5" y1="-12.99" x2="123.5" y2="165.25" gradientTransform="translate(60.4 186.6) rotate(-90)" xlink:href="#무제_그라디언트_7"/><linearGradient id="무제_그라디언트_7-29" x1="122.58" y1="-12.99" x2="122.58" y2="165.25" gradientTransform="translate(49.49 164.2) rotate(-80)" xlink:href="#무제_그라디언트_7"/><linearGradient id="무제_그라디언트_7-30" x1="119.86" y1="-12.99" x2="119.86" y2="165.25" gradientTransform="translate(38.99 140.56) rotate(-70)" xlink:href="#무제_그라디언트_7"/><linearGradient id="무제_그라디언트_7-31" x1="115.41" y1="-12.99" x2="115.41" y2="165.25" gradientTransform="translate(29.22 116.4) rotate(-60)" xlink:href="#무제_그라디언트_7"/><linearGradient id="무제_그라디언트_7-32" x1="109.38" y1="-12.99" x2="109.38" y2="165.25" gradientTransform="translate(20.48 92.45) rotate(-50)" xlink:href="#무제_그라디언트_7"/><linearGradient id="무제_그라디언트_7-33" x1="101.93" y1="-12.99" x2="101.93" y2="165.25" gradientTransform="translate(13.04 69.45) rotate(-40)" xlink:href="#무제_그라디언트_7"/><linearGradient id="무제_그라디언트_7-34" x1="93.31" y1="-12.99" x2="93.31" y2="165.25" gradientTransform="translate(7.12 48.1) rotate(-30)" xlink:href="#무제_그라디언트_7"/><linearGradient id="무제_그라디언트_7-35" x1="83.76" y1="-12.99" x2="83.76" y2="165.25" gradientTransform="translate(2.89 29.03) rotate(-20)" xlink:href="#무제_그라디언트_7"/><linearGradient id="무제_그라디언트_7-36" x1="73.59" y1="-12.99" x2="73.59" y2="165.25" gradientTransform="translate(0.49 12.83) rotate(-10)" xlink:href="#무제_그라디언트_7"/></defs><g id="레이어_2" data-name="레이어 2"><g id="레이어_1-2" data-name="레이어 1"><rect class="cls-1" x="60.43" width="5.34" height="5.34"/><rect class="cls-2" x="49.94" y="0.91" width="5.34" height="5.34" transform="translate(0.18 9.19) rotate(-10)"/><rect class="cls-3" x="39.77" y="3.64" width="5.34" height="5.34" transform="translate(0.4 14.89) rotate(-20)"/><rect class="cls-4" x="30.22" y="8.09" width="5.34" height="5.34" transform="translate(-0.97 17.89) rotate(-30)"/><rect class="cls-5" x="21.59" y="14.12" width="5.34" height="5.34" transform="translate(-5.12 19.52) rotate(-40)"/><rect class="cls-6" x="14.15" y="21.57" width="5.34" height="5.34" transform="translate(-12.56 21.54) rotate(-50)"/><rect class="cls-7" x="8.1" y="30.19" width="5.34" height="5.34" transform="translate(-23.07 25.76) rotate(-60)"/><rect class="cls-8" x="3.65" y="39.74" width="5.34" height="5.34" transform="translate(-35.69 33.84) rotate(-70)"/><rect class="cls-9" x="0.92" y="49.91" width="5.34" height="5.34" transform="translate(-48.81 46.98) rotate(-80)"/><rect class="cls-10" y="60.4" width="5.34" height="5.34" transform="translate(-60.4 65.73) rotate(-90)"/><rect class="cls-11" x="0.91" y="70.89" width="5.34" height="5.34" transform="translate(-68.23 89.86) rotate(-100)"/><rect class="cls-12" x="3.64" y="81.06" width="5.34" height="5.34" transform="translate(-70.22 118.29) rotate(-110)"/><rect class="cls-13" x="8.09" y="90.61" width="5.34" height="5.34" transform="translate(-64.65 149.23) rotate(-120)"/><rect class="cls-14" x="14.12" y="99.24" width="5.34" height="5.34" transform="translate(-50.48 180.27) rotate(-130)"/><rect class="cls-15" x="21.57" y="106.69" width="5.34" height="5.34" transform="translate(-27.49 208.7) rotate(-140)"/><rect class="cls-16" x="30.19" y="112.73" width="5.34" height="5.34" transform="translate(3.62 231.76) rotate(-150)"/><rect class="cls-17" x="39.74" y="117.18" width="5.34" height="5.34" transform="translate(41.26 246.97) rotate(-160)"/><rect class="cls-18" x="49.91" y="119.91" width="5.34" height="5.34" transform="translate(83.07 252.42) rotate(-170)"/><rect class="cls-19" x="60.4" y="120.83" width="5.34" height="5.34" transform="translate(126.13 247) rotate(180)"/><rect class="cls-20" x="70.89" y="119.92" width="5.34" height="5.34" transform="translate(167.28 230.53) rotate(170)"/><rect class="cls-21" x="81.06" y="117.19" width="5.34" height="5.34" transform="translate(203.41 203.86) rotate(160)"/><rect class="cls-22" x="90.61" y="112.75" width="5.34" height="5.34" transform="translate(231.76 168.72) rotate(150)"/><rect class="cls-23" x="99.24" y="106.71" width="5.34" height="5.34" transform="translate(250.27 127.66) rotate(140)"/><rect class="cls-24" x="106.69" y="99.26" width="5.34" height="5.34" transform="translate(257.73 83.68) rotate(130)"/><rect class="cls-25" x="112.73" y="90.64" width="5.34" height="5.34" transform="translate(253.9 40.02) rotate(120)"/><rect class="cls-26" x="117.18" y="81.1" width="5.34" height="5.34" transform="translate(239.55 -0.21) rotate(110)"/><rect class="cls-27" x="119.91" y="70.92" width="5.34" height="5.34" transform="translate(216.34 -34.34) rotate(100)"/><rect class="cls-28" x="120.83" y="60.43" width="5.34" height="5.34" transform="translate(186.6 -60.4) rotate(90)"/><rect class="cls-29" x="119.92" y="49.94" width="5.34" height="5.34" transform="translate(153.11 -77.25) rotate(80)"/><rect class="cls-30" x="117.19" y="39.77" width="5.34" height="5.34" transform="translate(118.75 -84.71) rotate(70)"/><rect class="cls-31" x="112.75" y="30.22" width="5.34" height="5.34" transform="translate(86.19 -83.51) rotate(60)"/><rect class="cls-32" x="106.71" y="21.59" width="5.34" height="5.34" transform="translate(57.66 -75.12) rotate(50)"/><rect class="cls-33" x="99.26" y="14.15" width="5.34" height="5.34" transform="translate(34.65 -61.59) rotate(40)"/><rect class="cls-34" x="90.64" y="8.1" width="5.34" height="5.34" transform="translate(17.89 -45.21) rotate(30)"/><rect class="cls-35" x="81.1" y="3.65" width="5.34" height="5.34" transform="matrix(0.94, 0.34, -0.34, 0.94, 7.21, -28.27)"/><rect class="cls-36" x="70.92" y="0.92" width="5.34" height="5.34" transform="translate(1.74 -12.72) rotate(10)"/><circle class="cls-37" cx="63.08" cy="63.08" r="53.2"/><circle class="cls-38" cx="63.08" cy="63.08" r="47.4"/><circle class="cls-39" cx="63.08" cy="63.08" r="41.32"/><path class="cls-40" d="M76.57,52.17c0,2.6-6,4.71-13.49,4.71S49.6,54.77,49.6,52.17s6-4.72,13.48-4.72,13.49,2.11,13.49,4.72Z"/><path class="cls-41" d="M70.5,48.23a33.05,33.05,0,0,0-7.42-.78c-7.44,0-13.48,2.11-13.48,4.72s6,4.71,13.48,4.71a33.63,33.63,0,0,0,7.42-.77Z"/><path class="cls-42" d="M63.08,56.88c-7.44,0-13.48-2.11-13.48-4.71v31c0,2.61,6,4.72,13.48,4.72s13.49-2.11,13.49-4.72v-31c0,2.6-6,4.71-13.49,4.71Z"/><path class="cls-40" d="M49.6,79.13c0,2.61,6,4.72,13.48,4.72s13.49-2.11,13.49-4.72V63c0,2.61-6,4.72-13.49,4.72S49.6,65.56,49.6,63Z"/><path class="cls-43" d="M72.52,51.49H71.17V50.14H69.82v1.35H68.48v1.35h1.34v1.35h1.35V52.84h1.35Z"/><rect class="cls-43" x="54.32" y="51.49" width="4.04" height="1.35"/><rect class="cls-43" x="51.62" y="67.67" width="1.35" height="1.35"/><rect class="cls-43" x="51.62" y="70.37" width="1.35" height="1.35"/><rect class="cls-43" x="51.62" y="73.06" width="1.35" height="1.35"/><rect class="cls-43" x="51.62" y="75.76" width="1.35" height="1.35"/><rect class="cls-43" x="51.62" y="78.46" width="1.35" height="1.35"/><rect class="cls-43" x="54.32" y="69.02" width="1.35" height="1.35"/><rect class="cls-43" x="54.32" y="71.71" width="1.35" height="1.35"/><rect class="cls-43" x="54.32" y="74.41" width="1.35" height="1.35"/><rect class="cls-43" x="54.32" y="77.11" width="1.35" height="1.35"/><rect class="cls-43" x="54.32" y="79.8" width="1.35" height="1.35"/><rect class="cls-43" x="57.02" y="69.69" width="1.35" height="1.35"/><rect class="cls-43" x="57.02" y="72.39" width="1.35" height="1.35"/><rect class="cls-43" x="57.02" y="75.08" width="1.35" height="1.35"/><rect class="cls-43" x="57.02" y="77.78" width="1.35" height="1.35"/><rect class="cls-43" x="57.02" y="80.48" width="1.35" height="1.35"/><rect class="cls-43" x="59.71" y="69.69" width="1.35" height="1.35"/><rect class="cls-43" x="59.71" y="72.39" width="1.35" height="1.35"/><rect class="cls-43" x="59.71" y="75.08" width="1.35" height="1.35"/><rect class="cls-43" x="59.71" y="77.78" width="1.35" height="1.35"/><rect class="cls-43" x="59.71" y="80.48" width="1.35" height="1.35"/><rect class="cls-43" x="73.19" y="67.67" width="1.35" height="1.35"/><rect class="cls-43" x="73.19" y="70.37" width="1.35" height="1.35"/><rect class="cls-43" x="73.19" y="73.06" width="1.35" height="1.35"/><rect class="cls-43" x="73.19" y="75.76" width="1.35" height="1.35"/><rect class="cls-43" x="73.19" y="78.46" width="1.35" height="1.35"/><rect class="cls-43" x="70.5" y="69.02" width="1.35" height="1.35"/><rect class="cls-43" x="70.5" y="71.71" width="1.35" height="1.35"/><rect class="cls-43" x="70.5" y="74.41" width="1.35" height="1.35"/><rect class="cls-43" x="70.5" y="77.11" width="1.35" height="1.35"/><rect class="cls-43" x="70.5" y="79.8" width="1.35" height="1.35"/><rect class="cls-43" x="67.8" y="69.69" width="1.35" height="1.35"/><rect class="cls-43" x="67.8" y="72.39" width="1.35" height="1.35"/><rect class="cls-43" x="67.8" y="75.08" width="1.35" height="1.35"/><rect class="cls-43" x="67.8" y="77.78" width="1.35" height="1.35"/><rect class="cls-43" x="67.8" y="80.48" width="1.35" height="1.35"/><rect class="cls-43" x="65.11" y="69.69" width="1.35" height="1.35"/><rect class="cls-43" x="65.11" y="72.39" width="1.35" height="1.35"/><rect class="cls-43" x="65.11" y="75.08" width="1.35" height="1.35"/><rect class="cls-43" x="65.11" y="77.78" width="1.35" height="1.35"/><rect class="cls-43" x="65.11" y="80.48" width="1.35" height="1.35"/><path class="cls-43" d="M62.41,83.84h1.35V67.66H62.41Z"/><path class="cls-42" d="M81.43,72.91l-.85-1a5.31,5.31,0,0,0,0-8.38l.85-1a6.66,6.66,0,0,1,0,10.48Z"/><path class="cls-42" d="M79.08,70.57l-.94-1a2.64,2.64,0,0,0,0-3.88l.93-1a4,4,0,0,1,0,5.83Z"/><path class="cls-42" d="M44.74,72.91a6.66,6.66,0,0,1,0-10.48l.85,1a5.31,5.31,0,0,0,0,8.38Z"/><path class="cls-42" d="M47.09,70.57a4,4,0,0,1,0-5.83l.92,1a2.69,2.69,0,0,0-.86,1.94A2.65,2.65,0,0,0,48,69.6Z"/><path class="cls-43" d="M63.08,50.82a3.37,3.37,0,0,0,3.36-3.22q-1.62-.15-3.36-.15c-1.16,0-2.28,0-3.35.15a3.36,3.36,0,0,0,3.35,3.22Z"/><path class="cls-44" d="M63.08,56.88c-7.44,0-13.48-2.11-13.48-4.71V62.28H68.48a2,2,0,0,0,2-2V56.11a33.63,33.63,0,0,1-7.42.77Z"/><path class="cls-45" d="M49.54,32.17V42.75h11.4l2.14,2.79,2.15-2.79h11.4V32.17Z"/><rect class="cls-46" x="51.44" y="34.5" width="1.06" height="5.93"/><rect class="cls-46" x="53.98" y="35.87" width="1.06" height="3.17"/><rect class="cls-46" x="56.42" y="36.72" width="1.06" height="1.48"/><rect class="cls-46" x="58.85" y="35.87" width="1.06" height="3.17"/><rect class="cls-46" x="61.28" y="34.5" width="1.06" height="5.93"/><rect class="cls-46" x="63.82" y="35.87" width="1.06" height="3.17"/><rect class="cls-46" x="66.26" y="34.5" width="1.06" height="5.93"/><rect class="cls-46" x="68.69" y="35.87" width="1.06" height="3.17"/><rect class="cls-46" x="71.12" y="36.72" width="1.06" height="1.48"/><rect class="cls-46" x="73.66" y="35.87" width="1.06" height="3.17"/></g></g></svg>