<svg xmlns="http://www.w3.org/2000/svg" viewBox="0 0 135.9 135.9"><defs><style>.cls-1,.cls-2,.cls-3{fill:none;stroke:#fff;stroke-miterlimit:10;stroke-width:3px;}.cls-1{opacity:0.1;}.cls-2{opacity:0.4;}.cls-4{fill:#434343;}.cls-5{fill:#cbcbcb;}.cls-6{fill:#ababab;}.cls-7{fill:#fff;}.cls-8{fill:#eaeaea;}.cls-9{fill:#595959;}</style></defs><g id="레이어_2" data-name="레이어 2"><g id="레이어_1-2" data-name="레이어 1"><circle class="cls-1" cx="67.95" cy="67.95" r="66.45"/><circle class="cls-2" cx="67.95" cy="67.95" r="59.21"/><circle class="cls-3" cx="67.95" cy="67.95" r="51.61"/><rect class="cls-4" x="43.47" y="55.07" width="48.97" height="3.87"/><path class="cls-5" d="M43.47,73.11a24.48,24.48,0,0,0,49,0v-9h-49Z"/><path class="cls-6" d="M86.51,64.09v9A24.48,24.48,0,0,1,65,97.41a24.13,24.13,0,0,0,3,.18A24.48,24.48,0,0,0,92.43,73.11v-9Z"/><path class="cls-7" d="M93.09,64.09H42.81a1.28,1.28,0,0,1-1.28-1.27V60.21a1.28,1.28,0,0,1,1.28-1.27H93.09a1.27,1.27,0,0,1,1.28,1.27v2.61a1.27,1.27,0,0,1-1.28,1.27Z"/><path class="cls-8" d="M90.24,58.94v5.15h2.85a1.27,1.27,0,0,0,1.28-1.27V60.21a1.27,1.27,0,0,0-1.28-1.27Z"/><path class="cls-5" d="M98.37,55.07H37.53a1.27,1.27,0,0,1-1.28-1.27V47.58a1.27,1.27,0,0,1,1.28-1.27H98.37a1.27,1.27,0,0,1,1.28,1.27V53.8a1.27,1.27,0,0,1-1.28,1.27Z"/><path class="cls-6" d="M94.5,46.31v8.76h3.87a1.27,1.27,0,0,0,1.28-1.27V47.58a1.27,1.27,0,0,0-1.28-1.27Z"/><path class="cls-4" d="M78.26,81.62a10.31,10.31,0,1,1-3-7.29,10.31,10.31,0,0,1,3,7.29Z"/><path class="cls-7" d="M74.14,81.62A6.19,6.19,0,1,1,68,75.43a6.19,6.19,0,0,1,6.19,6.19Z"/><path class="cls-7" d="M54.68,73.88a2.58,2.58,0,1,1-2.58-2.57,2.58,2.58,0,0,1,2.58,2.57Z"/><path class="cls-8" d="M70.84,76.15A6.1,6.1,0,0,1,71.56,79a6.19,6.19,0,0,1-6.19,6.18,6.27,6.27,0,0,1-2.89-.71,6.19,6.19,0,1,0,8.36-8.36Z"/><path class="cls-9" d="M68,52.68a1,1,0,0,1-1-1V49.66a1,1,0,1,1,1.92,0v2.06a1,1,0,0,1-1,1Z"/><path class="cls-9" d="M71.56,52.68a1,1,0,0,1-1-1V49.66a1,1,0,1,1,1.92,0v2.06a1,1,0,0,1-1,1Z"/><path class="cls-9" d="M75.17,52.68a1,1,0,0,1-1-1V49.66a1,1,0,1,1,1.91,0v2.06a1,1,0,0,1-1,1Z"/><path class="cls-9" d="M78.77,52.68a1,1,0,0,1-1-1V49.66a1,1,0,1,1,1.91,0v2.06a1,1,0,0,1-1,1Z"/><path class="cls-9" d="M64.34,52.68a1,1,0,0,1-1-1V49.66a1,1,0,1,1,1.91,0v2.06a1,1,0,0,1-1,1Z"/><path class="cls-9" d="M60.73,52.68a1,1,0,0,1-.95-1V49.66a1,1,0,1,1,1.91,0v2.06a1,1,0,0,1-1,1Z"/><path class="cls-9" d="M57.13,52.68a1,1,0,0,1-1-1V49.66a1,1,0,1,1,1.91,0v2.06a1,1,0,0,1-.95,1Z"/></g></g></svg>