<svg xmlns="http://www.w3.org/2000/svg" viewBox="0 0 135.9 135.9"><defs><style>.cls-1,.cls-2,.cls-3{fill:none;stroke:#fff;stroke-miterlimit:10;stroke-width:3px;}.cls-1{opacity:0.1;}.cls-2{opacity:0.4;}.cls-4{fill:#cbcbcb;}.cls-5{fill:#ababab;}.cls-6{fill:#595959;}.cls-7{fill:#818181;}.cls-8{fill:#f5f5f5;}.cls-9{fill:#fff;}</style></defs><g id="레이어_2" data-name="레이어 2"><g id="레이어_1-2" data-name="레이어 1"><circle class="cls-1" cx="67.95" cy="67.95" r="66.45"/><circle class="cls-2" cx="67.95" cy="67.95" r="59.21"/><circle class="cls-3" cx="67.95" cy="67.95" r="51.61"/><path class="cls-4" d="M83.69,100.85H51.56a1.32,1.32,0,0,1-1.32-1.32V36.37a1.32,1.32,0,0,1,1.32-1.32H83.69A1.32,1.32,0,0,1,85,36.37V99.53a1.32,1.32,0,0,1-1.32,1.32Z"/><path class="cls-5" d="M81,35.05v42.8H67.74a6.77,6.77,0,0,0-6.8,6.56,6.69,6.69,0,0,0,6.69,6.81h12A1.34,1.34,0,0,1,81,92.56v8.29h2.69A1.32,1.32,0,0,0,85,99.53V36.37a1.32,1.32,0,0,0-1.32-1.32Z"/><path class="cls-6" d="M54.25,83.21V40.38a1.32,1.32,0,0,1,1.32-1.32H79.68A1.32,1.32,0,0,1,81,40.38V83.21a1.33,1.33,0,0,1-1.32,1.33H55.57a1.33,1.33,0,0,1-1.32-1.33Z"/><path class="cls-7" d="M77,84.54a9.37,9.37,0,1,1-9.36-9.37A9.36,9.36,0,0,1,77,84.54Z"/><path class="cls-4" d="M96.52,80.52H67.63a4,4,0,1,0,0,8H96.52a4,4,0,0,0,0-8Z"/><path class="cls-8" d="M69.63,45.48a2,2,0,1,1-2-2,2,2,0,0,1,2,2Z"/><path class="cls-8" d="M62.28,45.48a2,2,0,1,1-2-2,2,2,0,0,1,2,2Z"/><path class="cls-8" d="M77,45.48a2,2,0,1,1-2-2,2,2,0,0,1,2,2Z"/><path class="cls-8" d="M69.63,53a2,2,0,1,1-2-2,2,2,0,0,1,2,2Z"/><path class="cls-4" d="M62.28,53a2,2,0,1,1-2-2,2,2,0,0,1,2,2Z"/><path class="cls-8" d="M77,53a2,2,0,1,1-2-2,2,2,0,0,1,2,2Z"/><path class="cls-8" d="M69.63,60.46a2,2,0,1,1-2-2,2,2,0,0,1,2,2Z"/><path class="cls-8" d="M62.28,60.46a2,2,0,1,1-2-2,2,2,0,0,1,2,2Z"/><path class="cls-8" d="M77,60.46a2,2,0,1,1-2-2,2,2,0,0,1,2,2Z"/><path class="cls-8" d="M69.63,68a2,2,0,1,1-2-2,2,2,0,0,1,2,2Z"/><path class="cls-9" d="M62.28,68a2,2,0,1,1-2-2,2,2,0,0,1,2,2Z"/><path class="cls-4" d="M77,68a2,2,0,1,1-2-2,2,2,0,0,1,2,2Z"/><path class="cls-9" d="M46,70.36a.94.94,0,0,1-.7-.29,3,3,0,0,1,0-4.24,1,1,0,0,1,1.4,1.4,1,1,0,0,0-.3.72,1,1,0,0,0,.3.72,1,1,0,0,1,0,1.4,1,1,0,0,1-.7.29Z"/><path class="cls-9" d="M43.5,72.82a1,1,0,0,1-.7-.29,6.48,6.48,0,0,1,0-9.16,1,1,0,0,1,1.4,0,1,1,0,0,1,0,1.41,4.5,4.5,0,0,0,0,6.35,1,1,0,0,1,0,1.4,1,1,0,0,1-.7.29Z"/><path class="cls-9" d="M41,75.28a1,1,0,0,1-.7-.29,9.95,9.95,0,0,1,0-14.08,1,1,0,0,1,1.4,0,1,1,0,0,1,0,1.41,8,8,0,0,0,0,11.27,1,1,0,0,1,0,1.4,1,1,0,0,1-.7.29Z"/><path class="cls-9" d="M89.29,70.36a1,1,0,0,1-.7-.29,1,1,0,0,1,0-1.4,1,1,0,0,0,.3-.72,1,1,0,0,0-.3-.72,1,1,0,1,1,1.4-1.4,3,3,0,0,1,0,4.24.94.94,0,0,1-.7.29Z"/><path class="cls-9" d="M91.75,72.82a1,1,0,0,1-.7-.29,1,1,0,0,1,0-1.4,4.5,4.5,0,0,0,0-6.35,1,1,0,0,1,0-1.41,1,1,0,0,1,1.4,0,6.48,6.48,0,0,1,0,9.16,1,1,0,0,1-.7.29Z"/><path class="cls-9" d="M94.21,75.28a1,1,0,0,1-.7-.29,1,1,0,0,1,0-1.4,8,8,0,0,0,0-11.27,1,1,0,0,1,0-1.41,1,1,0,0,1,1.4,0,9.95,9.95,0,0,1,0,14.08,1,1,0,0,1-.7.29Z"/></g></g></svg>