<svg xmlns="http://www.w3.org/2000/svg" xmlns:xlink="http://www.w3.org/1999/xlink" viewBox="0 0 1250 160"><defs><style>.cls-1{opacity:0.5;}.cls-2{fill:url(#linear-gradient);}.cls-3{fill:url(#linear-gradient-2);}.cls-4{fill:url(#linear-gradient-3);}.cls-5{fill:url(#linear-gradient-4);}.cls-6{fill:url(#linear-gradient-5);}.cls-7{fill:url(#linear-gradient-6);}.cls-8{fill:url(#linear-gradient-7);}.cls-9{fill:url(#linear-gradient-8);}.cls-10{fill:url(#linear-gradient-9);}.cls-11{fill:url(#linear-gradient-10);}.cls-12{fill:url(#linear-gradient-11);}.cls-13{fill:url(#linear-gradient-12);}.cls-14{fill:url(#linear-gradient-13);}.cls-15{fill:url(#linear-gradient-14);}.cls-16{fill:url(#linear-gradient-15);}.cls-17{fill:url(#linear-gradient-16);}.cls-18{fill:url(#linear-gradient-17);}.cls-19{fill:url(#linear-gradient-18);}.cls-20{fill:url(#linear-gradient-19);}.cls-21{fill:url(#linear-gradient-20);}.cls-22{fill:url(#linear-gradient-21);}.cls-23{fill:url(#linear-gradient-22);}.cls-24{fill:url(#linear-gradient-23);}.cls-25{fill:url(#linear-gradient-24);}.cls-26{fill:url(#linear-gradient-25);}.cls-27{fill:url(#linear-gradient-26);}.cls-28{fill:url(#linear-gradient-27);}.cls-29{fill:url(#linear-gradient-28);}.cls-30{fill:url(#linear-gradient-29);}.cls-31{fill:url(#linear-gradient-30);}.cls-32{fill:url(#linear-gradient-31);}.cls-33{fill:url(#linear-gradient-32);}.cls-34{fill:url(#linear-gradient-33);}.cls-35{fill:url(#linear-gradient-34);}.cls-36{fill:url(#linear-gradient-35);}</style><linearGradient id="linear-gradient" x1="-2752.78" y1="-3453.35" x2="-2925.5" y2="-3454.41" gradientTransform="translate(3468.37 -2758.01) rotate(-90)" gradientUnits="userSpaceOnUse"><stop offset="0" stop-color="#21cbff"/><stop offset="1" stop-color="#280696"/></linearGradient><linearGradient id="linear-gradient-2" x1="-2752.71" y1="-3420.94" x2="-2925.5" y2="-3422" xlink:href="#linear-gradient"/><linearGradient id="linear-gradient-3" x1="-2752.66" y1="-3388.53" x2="-2924.93" y2="-3389.59" xlink:href="#linear-gradient"/><linearGradient id="linear-gradient-4" x1="-2752.61" y1="-3356.1" x2="-2924.27" y2="-3357.15" xlink:href="#linear-gradient"/><linearGradient id="linear-gradient-5" x1="-2752.57" y1="-3323.66" x2="-2923.57" y2="-3324.71" xlink:href="#linear-gradient"/><linearGradient id="linear-gradient-6" x1="-2752.52" y1="-3291.18" x2="-2922.86" y2="-3292.23" xlink:href="#linear-gradient"/><linearGradient id="linear-gradient-7" x1="-2752.47" y1="-3258.66" x2="-2922.13" y2="-3259.7" xlink:href="#linear-gradient"/><linearGradient id="linear-gradient-8" x1="-2752.61" y1="-3194.62" x2="-2921.6" y2="-3195.66" xlink:href="#linear-gradient"/><linearGradient id="linear-gradient-9" x1="-2753.26" y1="-3048.81" x2="-2921.55" y2="-3049.84" xlink:href="#linear-gradient"/><linearGradient id="linear-gradient-10" x1="-2753.9" y1="-2903.03" x2="-2921.49" y2="-2904.06" xlink:href="#linear-gradient"/><linearGradient id="linear-gradient-11" x1="-2754.54" y1="-2757.33" x2="-2921.44" y2="-2758.36" xlink:href="#linear-gradient"/><linearGradient id="linear-gradient-12" x1="-2755.18" y1="-2611.57" x2="-2921.38" y2="-2612.59" xlink:href="#linear-gradient"/><linearGradient id="linear-gradient-13" x1="-2755.82" y1="-2465.76" x2="-2921.31" y2="-2466.77" xlink:href="#linear-gradient"/><linearGradient id="linear-gradient-14" x1="-2755.92" y1="-2407.31" x2="-2920.71" y2="-2408.32" xlink:href="#linear-gradient"/><linearGradient id="linear-gradient-15" x1="-2755.87" y1="-2375.02" x2="-2919.96" y2="-2376.03" xlink:href="#linear-gradient"/><linearGradient id="linear-gradient-16" x1="-2755.81" y1="-2342.7" x2="-2919.21" y2="-2343.7" xlink:href="#linear-gradient"/><linearGradient id="linear-gradient-17" x1="-2755.75" y1="-2310.36" x2="-2918.47" y2="-2311.36" xlink:href="#linear-gradient"/><linearGradient id="linear-gradient-18" x1="-2755.68" y1="-2278.01" x2="-2917.79" y2="-2279.01" xlink:href="#linear-gradient"/><linearGradient id="linear-gradient-19" x1="-2755.62" y1="-2245.66" x2="-2917.32" y2="-2246.65" xlink:href="#linear-gradient"/><linearGradient id="linear-gradient-20" x1="-2747.36" y1="-2843.3" x2="-3195.19" y2="-2846.05" xlink:href="#linear-gradient"/><linearGradient id="linear-gradient-21" x1="-2741.82" y1="-2843.25" x2="-3189.64" y2="-2846" xlink:href="#linear-gradient"/><linearGradient id="linear-gradient-22" x1="-2735.71" y1="-2843.19" x2="-3183.54" y2="-2845.94" xlink:href="#linear-gradient"/><linearGradient id="linear-gradient-23" x1="-2728.94" y1="-2843.12" x2="-3176.78" y2="-2845.87" xlink:href="#linear-gradient"/><linearGradient id="linear-gradient-24" x1="-2721.41" y1="-2843.05" x2="-3169.24" y2="-2845.8" xlink:href="#linear-gradient"/><linearGradient id="linear-gradient-25" x1="-2712.96" y1="-2842.97" x2="-3160.8" y2="-2845.71" xlink:href="#linear-gradient"/><linearGradient id="linear-gradient-26" x1="-2703.43" y1="-2842.87" x2="-3151.25" y2="-2845.62" xlink:href="#linear-gradient"/><linearGradient id="linear-gradient-27" x1="-2692.59" y1="-2842.77" x2="-3140.41" y2="-2845.51" xlink:href="#linear-gradient"/><linearGradient id="linear-gradient-28" x1="-2680.14" y1="-2842.65" x2="-3127.98" y2="-2845.39" xlink:href="#linear-gradient"/><linearGradient id="linear-gradient-29" x1="-2665.72" y1="-2842.5" x2="-3113.55" y2="-2845.25" xlink:href="#linear-gradient"/><linearGradient id="linear-gradient-30" x1="-2648.8" y1="-2842.34" x2="-3096.63" y2="-2845.09" xlink:href="#linear-gradient"/><linearGradient id="linear-gradient-31" x1="-2628.67" y1="-2842.14" x2="-3076.5" y2="-2844.89" xlink:href="#linear-gradient"/><linearGradient id="linear-gradient-32" x1="-2604.33" y1="-2841.9" x2="-3052.16" y2="-2844.65" xlink:href="#linear-gradient"/><linearGradient id="linear-gradient-33" x1="-2574.3" y1="-2841.61" x2="-3022.13" y2="-2844.36" xlink:href="#linear-gradient"/><linearGradient id="linear-gradient-34" x1="-2536.32" y1="-2841.24" x2="-2984.15" y2="-2843.98" xlink:href="#linear-gradient"/><linearGradient id="linear-gradient-35" x1="-2486.76" y1="-2840.75" x2="-2934.59" y2="-2843.5" xlink:href="#linear-gradient"/></defs><g id="레이어_2" data-name="레이어 2"><g id="레이어_1-2" data-name="레이어 1"><g class="cls-1"><polygon class="cls-2" points="0 3.65 29.95 0.57 29.74 0 0 3.06 0 3.65"/><polygon class="cls-3" points="0 11.45 94.72 0.57 94.48 0 0 10.86 0 11.45"/><polygon class="cls-4" points="0 21.31 159.49 0.57 159.22 0 0 20.71 0 21.31"/><polygon class="cls-5" points="0 34.15 224.26 0.56 223.97 0.01 0 33.55 0 34.15"/><polygon class="cls-6" points="0 51.59 289.04 0.56 288.7 0.01 0 50.98 0 51.59"/><polygon class="cls-7" points="0 76.63 353.83 0.56 353.42 0.02 0 76 0 76.63"/><polygon class="cls-8" points="0 115.62 418.64 0.54 418.13 0.03 0 114.97 0 115.62"/><polygon class="cls-9" points="64.87 160 483.46 0.52 482.82 0.05 62.99 160 64.87 160"/><polygon class="cls-10" points="291.21 160 548.32 0.47 547.48 0.1 289.76 160 291.21 160"/><polygon class="cls-11" points="517.62 160 613.18 0.37 612.13 0.2 516.47 160 517.62 160"/><polygon class="cls-12" points="744.17 160 677.95 0.22 676.88 0.35 743.04 160 744.17 160"/><polygon class="cls-13" points="970.85 160 742.61 0.11 741.73 0.46 969.48 160 970.85 160"/><polygon class="cls-14" points="1197.62 160 807.27 0.06 806.59 0.52 1195.83 160 1197.62 160"/><polygon class="cls-15" points="1250 109.49 871.95 0.03 871.42 0.54 1250 110.16 1250 109.49"/><polygon class="cls-16" points="1250 70.17 936.66 0.02 936.23 0.55 1250 70.8 1250 70.17"/><polygon class="cls-17" points="1250 45.38 1001.38 0.01 1001.02 0.56 1250 46 1250 45.38"/><polygon class="cls-18" points="1250 28.33 1066.11 0.01 1065.8 0.56 1250 28.93 1250 28.33"/><polygon class="cls-19" points="1250 15.88 1130.85 0 1130.58 0.57 1250 16.48 1250 15.88"/><polygon class="cls-20" points="1250 6.39 1195.59 0 1195.36 0.57 1250 6.98 1250 6.39"/><rect class="cls-21" y="0.01" width="1250" height="0.58"/><rect class="cls-22" y="3.31" width="1250" height="0.58"/><rect class="cls-23" y="6.95" width="1250" height="0.58"/><rect class="cls-24" y="10.98" width="1250" height="0.58"/><rect class="cls-25" y="15.47" width="1250" height="0.58"/><rect class="cls-26" y="20.5" width="1250" height="0.58"/><rect class="cls-27" y="26.18" width="1250" height="0.58"/><rect class="cls-28" y="32.64" width="1250" height="0.58"/><rect class="cls-29" y="40.05" width="1250" height="0.58"/><rect class="cls-30" y="48.65" width="1250" height="0.58"/><rect class="cls-31" y="58.73" width="1250" height="0.58"/><rect class="cls-32" y="70.72" width="1250" height="0.58"/><rect class="cls-33" y="85.22" width="1250" height="0.58"/><rect class="cls-34" y="103.11" width="1250" height="0.58"/><rect class="cls-35" y="125.73" width="1250" height="0.58"/><rect class="cls-36" y="155.26" width="1250" height="0.58"/></g></g></g></svg>