<svg xmlns="http://www.w3.org/2000/svg" viewBox="0 0 135.9 135.9"><defs><style>.cls-1,.cls-2,.cls-3{fill:none;stroke:#fff;stroke-miterlimit:10;stroke-width:3px;}.cls-1{opacity:0.1;}.cls-2{opacity:0.4;}.cls-4{fill:#7a7a7a;}.cls-5{fill:#dbdbdb;}.cls-6{fill:#c1c1c1;}.cls-7{fill:#fff;}.cls-8{fill:#666;}.cls-9{fill:#d3d3d3;}.cls-10{fill:#efefef;}</style></defs><g id="레이어_2" data-name="레이어 2"><g id="레이어_1-2" data-name="레이어 1"><circle class="cls-1" cx="67.95" cy="67.95" r="66.45"/><circle class="cls-2" cx="67.95" cy="67.95" r="59.21"/><circle class="cls-3" cx="67.95" cy="67.95" r="51.61"/><path class="cls-4" d="M81.24,44.92V39.77a1,1,0,1,0-1.91,0v5.15a.31.31,0,0,1-.32.31H73.7a2.23,2.23,0,0,0-2.23,2.23v4.73a1,1,0,0,0,1.91,0V47.46a.32.32,0,0,1,.32-.32H79a2.23,2.23,0,0,0,2.23-2.22Z"/><path class="cls-4" d="M77.94,56.18a1,1,0,0,0,1,1h8.39a2.23,2.23,0,0,0,2.22-2.23V45a.32.32,0,0,1,.32-.32H96a1,1,0,1,0,0-1.9h-6.2A2.21,2.21,0,0,0,87.6,45v9.89a.32.32,0,0,1-.32.32H78.89a1,1,0,0,0-1,1Z"/><path class="cls-4" d="M62.2,45.23H56.89a.31.31,0,0,1-.32-.31V39.77a1,1,0,1,0-1.91,0v5.15a2.23,2.23,0,0,0,2.23,2.22H62.2a.32.32,0,0,1,.32.32v4.73a1,1,0,0,0,1.91,0V47.46a2.23,2.23,0,0,0-2.23-2.23Z"/><path class="cls-4" d="M39.88,44.7h6.2a.32.32,0,0,1,.32.32v9.89a2.23,2.23,0,0,0,2.22,2.23H57a1,1,0,0,0,0-1.91H48.62a.31.31,0,0,1-.31-.32V45a2.22,2.22,0,0,0-2.23-2.22h-6.2a1,1,0,1,0,0,1.9Z"/><path class="cls-4" d="M59,87.54a1,1,0,0,0-1,.95v7.36a.32.32,0,0,1-.31.32h-5.4a.95.95,0,1,0,0,1.9h5.4a2.22,2.22,0,0,0,2.22-2.22V88.49a1,1,0,0,0-.95-.95Z"/><path class="cls-4" d="M83.58,96.17h-5.4a.32.32,0,0,1-.31-.32V88.49a1,1,0,0,0-1.91,0v7.36a2.22,2.22,0,0,0,2.22,2.22h5.4a1,1,0,1,0,0-1.9Z"/><path class="cls-4" d="M95.85,82.66H90.9a.32.32,0,0,1-.32-.32V77.85h4.11a1,1,0,1,0,0-1.91H90.58v-2a2.22,2.22,0,0,0-2.22-2.22H84.53a1,1,0,1,0,0,1.91h3.83a.32.32,0,0,1,.32.31v8.43a2.23,2.23,0,0,0,2.22,2.23h4.95a.32.32,0,0,1,.32.31v4.73a1,1,0,1,0,1.9,0V84.88a2.22,2.22,0,0,0-2.22-2.22Z"/><path class="cls-4" d="M52.33,72.64a1,1,0,0,0-1-1H47.54a2.22,2.22,0,0,0-2.22,2.22v2H41.21a1,1,0,1,0,0,1.91h4.11v4.49a.32.32,0,0,1-.32.32h-5a2.23,2.23,0,0,0-2.22,2.23v4.72a1,1,0,0,0,1.91,0V84.89a.31.31,0,0,1,.31-.32h5a2.22,2.22,0,0,0,2.22-2.23V73.91a.32.32,0,0,1,.32-.31h3.83a1,1,0,0,0,1-1Z"/><path class="cls-5" d="M84.52,88.49H51.37V63.82L68,53.52l16.57,10.3Z"/><path class="cls-6" d="M68,53.52,65.41,55.1l14,8.72V88.49h5.08V63.82Z"/><path class="cls-7" d="M68,54.53,47.81,67a2.17,2.17,0,1,1-2.29-3.69L67.05,50a1.7,1.7,0,0,1,1.79,0L90.38,63.28A2.17,2.17,0,1,1,88.09,67L68,54.53Z"/><rect class="cls-8" x="62.76" y="74.75" width="10.38" height="13.74"/><path class="cls-9" d="M82.71,38.78a2.43,2.43,0,1,1-2.43-2.42,2.43,2.43,0,0,1,2.43,2.42Z"/><path class="cls-9" d="M58,38.78a2.43,2.43,0,1,1-2.42-2.42A2.42,2.42,0,0,1,58,38.78Z"/><path class="cls-10" d="M41.21,43.55a2.43,2.43,0,1,1-2.43-2.42,2.43,2.43,0,0,1,2.43,2.42Z"/><path class="cls-10" d="M99.55,43.55a2.43,2.43,0,1,1-2.43-2.42,2.43,2.43,0,0,1,2.43,2.42Z"/><path class="cls-10" d="M52.32,97.12a2.43,2.43,0,1,1-2.42-2.43,2.42,2.42,0,0,1,2.42,2.43Z"/><path class="cls-10" d="M88.43,97.12A2.43,2.43,0,1,1,86,94.69a2.43,2.43,0,0,1,2.43,2.43Z"/><path class="cls-9" d="M99.55,92a2.43,2.43,0,1,1-2.43-2.42A2.43,2.43,0,0,1,99.55,92Z"/><path class="cls-9" d="M99.55,76.89a2.43,2.43,0,1,1-2.43-2.42,2.43,2.43,0,0,1,2.43,2.42Z"/><path class="cls-9" d="M41.21,92a2.43,2.43,0,1,1-2.43-2.42A2.43,2.43,0,0,1,41.21,92Z"/><path class="cls-9" d="M41.21,76.89a2.43,2.43,0,1,1-2.43-2.42,2.43,2.43,0,0,1,2.43,2.42Z"/></g></g></svg>