<svg xmlns="http://www.w3.org/2000/svg" xmlns:xlink="http://www.w3.org/1999/xlink" viewBox="0 0 153.9 153.9"><defs><style>.cls-1{fill:url(#무제_그라디언트_7);}.cls-2{fill:url(#무제_그라디언트_7-2);}.cls-3{fill:url(#무제_그라디언트_7-3);}.cls-4{fill:url(#무제_그라디언트_7-4);}.cls-5{fill:url(#무제_그라디언트_7-5);}.cls-6{fill:url(#무제_그라디언트_7-6);}.cls-7{fill:url(#무제_그라디언트_7-7);}.cls-8{fill:url(#무제_그라디언트_7-8);}.cls-9{fill:url(#무제_그라디언트_7-9);}.cls-10{fill:url(#무제_그라디언트_7-10);}.cls-11{fill:url(#무제_그라디언트_7-11);}.cls-12{fill:url(#무제_그라디언트_7-12);}.cls-13{fill:url(#무제_그라디언트_7-13);}.cls-14{fill:url(#무제_그라디언트_7-14);}.cls-15{fill:url(#무제_그라디언트_7-15);}.cls-16{fill:url(#무제_그라디언트_7-16);}.cls-17{fill:url(#무제_그라디언트_7-17);}.cls-18{fill:url(#무제_그라디언트_7-18);}.cls-19{fill:url(#무제_그라디언트_7-19);}.cls-20{fill:url(#무제_그라디언트_7-20);}.cls-21{fill:url(#무제_그라디언트_7-21);}.cls-22{fill:url(#무제_그라디언트_7-22);}.cls-23{fill:url(#무제_그라디언트_7-23);}.cls-24{fill:url(#무제_그라디언트_7-24);}.cls-25{fill:url(#무제_그라디언트_7-25);}.cls-26{fill:url(#무제_그라디언트_7-26);}.cls-27{fill:url(#무제_그라디언트_7-27);}.cls-28{fill:url(#무제_그라디언트_7-28);}.cls-29{fill:url(#무제_그라디언트_7-29);}.cls-30{fill:url(#무제_그라디언트_7-30);}.cls-31{fill:url(#무제_그라디언트_7-31);}.cls-32{fill:url(#무제_그라디언트_7-32);}.cls-33{fill:url(#무제_그라디언트_7-33);}.cls-34{fill:url(#무제_그라디언트_7-34);}.cls-35{fill:url(#무제_그라디언트_7-35);}.cls-36{fill:url(#무제_그라디언트_7-36);}.cls-37,.cls-38,.cls-39{fill:none;stroke:#fff;stroke-miterlimit:10;stroke-width:2.93px;}.cls-37{opacity:0.1;}.cls-38{opacity:0.4;}.cls-40{fill:#e3e3e3;}.cls-41{fill:#d0d0d0;}.cls-42{fill:#fff;}.cls-43{fill:#f7f7f7;}.cls-44{fill:#a3a3a3;}.cls-45{fill:#bababa;}.cls-46{fill:#a2a2a2;}.cls-47{fill:#898989;}.cls-48{fill:#565656;}.cls-49{fill:#777;}.cls-50{fill:#e0e0e0;}</style><linearGradient id="무제_그라디언트_7" x1="76.97" y1="-15.84" x2="76.97" y2="201.57" gradientUnits="userSpaceOnUse"><stop offset="0" stop-color="#fff"/><stop offset="1" stop-color="#fff" stop-opacity="0"/></linearGradient><linearGradient id="무제_그라디언트_7-2" x1="64.17" y1="-15.84" x2="64.17" y2="201.57" gradientTransform="translate(1.73 -11.08) rotate(10)" xlink:href="#무제_그라디언트_7"/><linearGradient id="무제_그라디언트_7-3" x1="51.76" y1="-15.84" x2="51.76" y2="201.57" gradientTransform="translate(5.75 -17.24) rotate(20)" xlink:href="#무제_그라디언트_7"/><linearGradient id="무제_그라디언트_7-4" x1="40.12" y1="-15.84" x2="40.12" y2="201.57" gradientTransform="translate(11.93 -18.3) rotate(30)" xlink:href="#무제_그라디언트_7"/><linearGradient id="무제_그라디언트_7-5" x1="29.6" y1="-15.84" x2="29.6" y2="201.57" gradientTransform="translate(20.09 -14.23) rotate(40)" xlink:href="#무제_그라디언트_7"/><linearGradient id="무제_그라디언트_7-6" x1="20.51" y1="-15.84" x2="20.51" y2="201.57" gradientTransform="translate(29.97 -5.15) rotate(50)" xlink:href="#무제_그라디언트_7"/><linearGradient id="무제_그라디언트_7-7" x1="13.14" y1="-15.84" x2="13.14" y2="201.57" gradientTransform="translate(41.28 8.66) rotate(60)" xlink:href="#무제_그라디언트_7"/><linearGradient id="무제_그라디언트_7-8" x1="7.71" y1="-15.84" x2="7.71" y2="201.57" gradientTransform="translate(53.67 26.79) rotate(70)" xlink:href="#무제_그라디언트_7"/><linearGradient id="무제_그라디언트_7-9" x1="4.38" y1="-15.84" x2="4.38" y2="201.57" gradientTransform="translate(66.77 48.68) rotate(80)" xlink:href="#무제_그라디언트_7"/><linearGradient id="무제_그라디언트_7-10" x1="3.25" y1="-15.84" x2="3.25" y2="201.57" gradientTransform="translate(80.18 73.67) rotate(90)" xlink:href="#무제_그라디언트_7"/><linearGradient id="무제_그라디언트_7-11" x1="4.37" y1="-15.84" x2="4.37" y2="201.57" gradientTransform="translate(93.49 101) rotate(100)" xlink:href="#무제_그라디언트_7"/><linearGradient id="무제_그라디언트_7-12" x1="7.69" y1="-15.84" x2="7.69" y2="201.57" gradientTransform="translate(106.3 129.84) rotate(110)" xlink:href="#무제_그라디언트_7"/><linearGradient id="무제_그라디언트_7-13" x1="13.12" y1="-15.84" x2="13.12" y2="201.57" gradientTransform="translate(118.21 159.31) rotate(120)" xlink:href="#무제_그라디언트_7"/><linearGradient id="무제_그라디언트_7-14" x1="20.48" y1="-15.84" x2="20.48" y2="201.57" gradientTransform="matrix(-0.64, 0.77, -0.77, -0.64, 128.87, 188.51)" xlink:href="#무제_그라디언트_7"/><linearGradient id="무제_그라디언트_7-15" x1="29.56" y1="-15.84" x2="29.56" y2="201.57" gradientTransform="translate(137.95 216.57) rotate(140)" xlink:href="#무제_그라디언트_7"/><linearGradient id="무제_그라디언트_7-16" x1="40.08" y1="-15.84" x2="40.08" y2="201.57" gradientTransform="translate(145.18 242.62) rotate(150)" xlink:href="#무제_그라디언트_7"/><linearGradient id="무제_그라디언트_7-17" x1="51.72" y1="-15.84" x2="51.72" y2="201.57" gradientTransform="translate(150.33 265.88) rotate(160)" xlink:href="#무제_그라디언트_7"/><linearGradient id="무제_그라디언트_7-18" x1="64.13" y1="-15.84" x2="64.13" y2="201.57" gradientTransform="translate(153.25 285.63) rotate(170)" xlink:href="#무제_그라디언트_7"/><linearGradient id="무제_그라디언트_7-19" x1="76.93" y1="-15.84" x2="76.93" y2="201.57" gradientTransform="translate(153.85 301.29) rotate(-180)" xlink:href="#무제_그라디언트_7"/><linearGradient id="무제_그라디언트_7-20" x1="89.72" y1="-15.84" x2="89.72" y2="201.57" gradientTransform="translate(152.12 312.36) rotate(-170)" xlink:href="#무제_그라디언트_7"/><linearGradient id="무제_그라디언트_7-21" x1="102.13" y1="-15.84" x2="102.13" y2="201.57" gradientTransform="translate(148.1 318.53) rotate(-160)" xlink:href="#무제_그라디언트_7"/><linearGradient id="무제_그라디언트_7-22" x1="113.78" y1="-15.84" x2="113.78" y2="201.57" gradientTransform="translate(141.92 319.59) rotate(-150)" xlink:href="#무제_그라디언트_7"/><linearGradient id="무제_그라디언트_7-23" x1="124.3" y1="-15.84" x2="124.3" y2="201.57" gradientTransform="translate(133.77 315.52) rotate(-140)" xlink:href="#무제_그라디언트_7"/><linearGradient id="무제_그라디언트_7-24" x1="133.39" y1="-15.84" x2="133.39" y2="201.57" gradientTransform="translate(123.88 306.44) rotate(-130)" xlink:href="#무제_그라디언트_7"/><linearGradient id="무제_그라디언트_7-25" x1="140.76" y1="-15.84" x2="140.76" y2="201.57" gradientTransform="translate(112.57 292.62) rotate(-120)" xlink:href="#무제_그라디언트_7"/><linearGradient id="무제_그라디언트_7-26" x1="146.19" y1="-15.84" x2="146.19" y2="201.57" gradientTransform="translate(100.18 274.5) rotate(-110)" xlink:href="#무제_그라디언트_7"/><linearGradient id="무제_그라디언트_7-27" x1="149.52" y1="-15.84" x2="149.52" y2="201.57" gradientTransform="translate(87.08 252.6) rotate(-100)" xlink:href="#무제_그라디언트_7"/><linearGradient id="무제_그라디언트_7-28" x1="150.64" y1="-15.84" x2="150.64" y2="201.57" gradientTransform="translate(73.67 227.61) rotate(-90)" xlink:href="#무제_그라디언트_7"/><linearGradient id="무제_그라디언트_7-29" x1="149.53" y1="-15.84" x2="149.53" y2="201.57" gradientTransform="translate(60.36 200.29) rotate(-80)" xlink:href="#무제_그라디언트_7"/><linearGradient id="무제_그라디언트_7-30" x1="146.21" y1="-15.84" x2="146.21" y2="201.57" gradientTransform="translate(47.56 171.45) rotate(-70)" xlink:href="#무제_그라디언트_7"/><linearGradient id="무제_그라디언트_7-31" x1="140.78" y1="-15.84" x2="140.78" y2="201.57" gradientTransform="translate(35.65 141.98) rotate(-60)" xlink:href="#무제_그라디언트_7"/><linearGradient id="무제_그라디언트_7-32" x1="133.42" y1="-15.84" x2="133.42" y2="201.57" gradientTransform="translate(24.99 112.78) rotate(-50)" xlink:href="#무제_그라디언트_7"/><linearGradient id="무제_그라디언트_7-33" x1="124.34" y1="-15.84" x2="124.34" y2="201.57" gradientTransform="translate(15.91 84.72) rotate(-40)" xlink:href="#무제_그라디언트_7"/><linearGradient id="무제_그라디언트_7-34" x1="113.81" y1="-15.84" x2="113.81" y2="201.57" gradientTransform="translate(8.68 58.67) rotate(-30)" xlink:href="#무제_그라디언트_7"/><linearGradient id="무제_그라디언트_7-35" x1="102.17" y1="-15.84" x2="102.17" y2="201.57" gradientTransform="translate(3.53 35.41) rotate(-20)" xlink:href="#무제_그라디언트_7"/><linearGradient id="무제_그라디언트_7-36" x1="89.77" y1="-15.84" x2="89.77" y2="201.57" gradientTransform="translate(0.6 15.65) rotate(-10)" xlink:href="#무제_그라디언트_7"/></defs><g id="레이어_2" data-name="레이어 2"><g id="레이어_1-2" data-name="레이어 1"><rect class="cls-1" x="73.72" width="6.51" height="6.51"/><rect class="cls-2" x="60.92" y="1.12" width="6.51" height="6.51" transform="matrix(0.98, -0.17, 0.17, 0.98, 0.22, 11.21)"/><rect class="cls-3" x="48.51" y="4.44" width="6.51" height="6.51" transform="translate(0.49 18.17) rotate(-20)"/><rect class="cls-4" x="36.87" y="9.86" width="6.51" height="6.51" transform="translate(-1.18 21.82) rotate(-30)"/><rect class="cls-5" x="26.34" y="17.23" width="6.51" height="6.51" transform="translate(-6.24 23.82) rotate(-40)"/><rect class="cls-6" x="17.26" y="26.31" width="6.51" height="6.51" transform="translate(-15.32 26.27) rotate(-50)"/><rect class="cls-7" x="9.88" y="36.83" width="6.51" height="6.51" transform="translate(-28.14 31.42) rotate(-60)"/><rect class="cls-8" x="4.45" y="48.47" width="6.51" height="6.51" transform="translate(-43.53 41.27) rotate(-70)"/><rect class="cls-9" x="1.12" y="60.88" width="6.51" height="6.51" transform="translate(-59.54 57.31) rotate(-80)"/><rect class="cls-10" y="73.67" width="6.51" height="6.51" transform="translate(-73.67 80.18) rotate(-90)"/><rect class="cls-11" x="1.12" y="86.47" width="6.51" height="6.51" transform="translate(-83.23 109.61) rotate(-100)"/><rect class="cls-12" x="4.44" y="98.88" width="6.51" height="6.51" transform="translate(-85.65 144.29) rotate(-110)"/><rect class="cls-13" x="9.86" y="110.52" width="6.51" height="6.51" transform="translate(-78.86 182.03) rotate(-120)"/><rect class="cls-14" x="17.23" y="121.05" width="6.51" height="6.51" transform="translate(-61.57 219.89) rotate(-130)"/><rect class="cls-15" x="26.31" y="130.13" width="6.51" height="6.51" transform="translate(-33.53 254.57) rotate(-140)"/><rect class="cls-16" x="36.83" y="137.51" width="6.51" height="6.51" transform="translate(4.42 282.7) rotate(-150)"/><rect class="cls-17" x="48.47" y="142.94" width="6.51" height="6.51" transform="translate(50.33 301.26) rotate(-160)"/><rect class="cls-18" x="60.88" y="146.27" width="6.51" height="6.51" transform="translate(101.32 307.91) rotate(-170)"/><rect class="cls-19" x="73.67" y="147.39" width="6.51" height="6.51" transform="translate(153.85 301.29) rotate(180)"/><rect class="cls-20" x="86.47" y="146.27" width="6.51" height="6.51" transform="matrix(-0.98, 0.17, -0.17, -0.98, 204.05, 281.2)"/><rect class="cls-21" x="98.88" y="142.95" width="6.51" height="6.51" transform="translate(248.11 248.66) rotate(160)"/><rect class="cls-22" x="110.52" y="137.53" width="6.51" height="6.51" transform="translate(282.7 205.81) rotate(150)"/><rect class="cls-23" x="121.05" y="130.16" width="6.51" height="6.51" transform="translate(305.28 155.72) rotate(140)"/><rect class="cls-24" x="130.13" y="121.08" width="6.51" height="6.51" transform="translate(314.38 102.07) rotate(130)"/><rect class="cls-25" x="137.51" y="110.56" width="6.51" height="6.51" transform="translate(309.71 48.82) rotate(120)"/><rect class="cls-26" x="142.94" y="98.92" width="6.51" height="6.51" transform="translate(292.21 -0.25) rotate(110)"/><rect class="cls-27" x="146.27" y="86.51" width="6.51" height="6.51" transform="translate(263.89 -41.89) rotate(100)"/><rect class="cls-28" x="147.39" y="73.72" width="6.51" height="6.51" transform="translate(227.61 -73.67) rotate(90)"/><rect class="cls-29" x="146.27" y="60.92" width="6.51" height="6.51" transform="translate(186.76 -94.23) rotate(80)"/><rect class="cls-30" x="142.95" y="48.51" width="6.51" height="6.51" transform="translate(144.85 -103.33) rotate(70)"/><rect class="cls-31" x="137.53" y="36.87" width="6.51" height="6.51" transform="translate(105.14 -101.86) rotate(60)"/><rect class="cls-32" x="130.16" y="26.34" width="6.51" height="6.51" transform="translate(70.33 -91.63) rotate(50)"/><rect class="cls-33" x="121.08" y="17.26" width="6.51" height="6.51" transform="translate(42.27 -75.12) rotate(40)"/><rect class="cls-34" x="110.56" y="9.88" width="6.51" height="6.51" transform="translate(21.82 -55.15) rotate(30)"/><rect class="cls-35" x="98.92" y="4.45" width="6.51" height="6.51" transform="translate(8.8 -34.48) rotate(20)"/><rect class="cls-36" x="86.51" y="1.12" width="6.51" height="6.51" transform="translate(2.12 -15.52) rotate(10)"/><circle class="cls-37" cx="76.95" cy="76.95" r="64.9"/><circle class="cls-38" cx="76.95" cy="76.95" r="57.82"/><circle class="cls-39" cx="76.95" cy="76.95" r="50.41"/><path class="cls-40" d="M103.47,62.47,99,58a2.14,2.14,0,0,0-1.5-.62h-41A2.12,2.12,0,0,0,55,58l-4.52,4.52a2.12,2.12,0,0,0-.62,1.5v38.54a2.08,2.08,0,0,0,.62,1.49L55,108.52a2.08,2.08,0,0,0,1.49.62h41a2.1,2.1,0,0,0,1.5-.62l4.52-4.52a2.08,2.08,0,0,0,.62-1.49V64A2.12,2.12,0,0,0,103.47,62.47Z"/><path class="cls-41" d="M57.53,104a2.08,2.08,0,0,1-.62-1.49V64a2.12,2.12,0,0,1,.62-1.5L62.05,58a2.14,2.14,0,0,1,1.5-.62H56.44A2.12,2.12,0,0,0,55,58l-4.52,4.52a2.12,2.12,0,0,0-.62,1.5v38.54a2.08,2.08,0,0,0,.62,1.49L55,108.52a2.08,2.08,0,0,0,1.49.62h7.11a2.1,2.1,0,0,1-1.5-.62Z"/><path class="cls-42" d="M92,83.24A16.24,16.24,0,1,1,75.71,67,16.24,16.24,0,0,1,92,83.24Z"/><path class="cls-43" d="M65.24,83.24a16.24,16.24,0,0,1,13.36-16,16.25,16.25,0,1,0,0,32,16.24,16.24,0,0,1-13.36-16Z"/><path class="cls-44" d="M75.71,100.52A17.29,17.29,0,1,1,93,83.24a17.3,17.3,0,0,1-17.29,17.28Zm0-32.48a15.2,15.2,0,1,0,15.2,15.2A15.21,15.21,0,0,0,75.71,68Z"/><path class="cls-45" d="M49.81,71V95.46a16.74,16.74,0,0,0,0-24.44Z"/><path class="cls-45" d="M104.09,71a16.72,16.72,0,0,0,0,24.44V71Z"/><path class="cls-45" d="M85.83,44.51a1.07,1.07,0,0,1-.77-.34,12.57,12.57,0,0,0-18.7,0,1,1,0,0,1-1.47.06,1.05,1.05,0,0,1-.06-1.48,14.65,14.65,0,0,1,21.76,0,1.05,1.05,0,0,1,0,1.48,1.08,1.08,0,0,1-.71.28Z"/><path class="cls-46" d="M82.74,47.83A1,1,0,0,1,82,47.5a8.41,8.41,0,0,0-12.53,0,1.05,1.05,0,0,1-1.48,0,1,1,0,0,1,0-1.47,10.49,10.49,0,0,1,15.59,0,1,1,0,0,1-.06,1.47,1,1,0,0,1-.71.28Z"/><path class="cls-47" d="M79.66,51.16a1.07,1.07,0,0,1-.77-.34,4.25,4.25,0,0,0-6.36,0A1,1,0,1,1,71,49.4a6.36,6.36,0,0,1,9.43,0,1.05,1.05,0,0,1-.06,1.48,1.08,1.08,0,0,1-.71.28Z"/><path class="cls-47" d="M76,54.38h-.52a1,1,0,0,1,0-2.09H76a1,1,0,1,1,0,2.09Z"/><path class="cls-48" d="M94,102.62a1,1,0,1,1-1-1,1,1,0,0,1,1,1Z"/><path class="cls-49" d="M68.16,102.62a1,1,0,1,1-1-1,1,1,0,0,1,1,1Z"/><path class="cls-48" d="M62.87,102.62a1,1,0,1,1-1-1,1,1,0,0,1,1,1Z"/><path class="cls-50" d="M70.72,80.74v5.05h.47a.77.77,0,0,1,0,1.53H68.5a.69.69,0,0,1-.66-.76.71.71,0,0,1,.66-.77H69V80.74H68.5a.7.7,0,0,1-.66-.76.71.71,0,0,1,.66-.77h2.69a.77.77,0,0,1,0,1.53Z"/><path class="cls-50" d="M78.5,84.53a2.89,2.89,0,1,1-2.88-2.85A2.85,2.85,0,0,1,78.5,84.53Zm-4.08,0a1.21,1.21,0,1,0,2.39,0,1.2,1.2,0,1,0-2.39,0Z"/><path class="cls-50" d="M79.83,80.74a.73.73,0,0,1-.7-.76.74.74,0,0,1,.7-.77h5.53a.77.77,0,0,1,0,1.53H83.48v5.89a.89.89,0,0,1-1.77,0V80.74Z"/></g></g></svg>