<svg xmlns="http://www.w3.org/2000/svg" viewBox="0 0 275.38 57.99"><defs><style>.cls-1{fill:#fff;}.cls-2{fill:#fed312;}.cls-3,.cls-4{fill:#fabd00;}.cls-3{fill-rule:evenodd;}</style></defs><g id="레이어_2" data-name="레이어 2"><g id="레이어_1-2" data-name="레이어 1"><path class="cls-1" d="M48.31,33.32a7.82,7.82,0,0,1-5.23,3.42v-3c2.1-.86,3.55-2.34,3.55-7.47V19.59H50v6.69c0,5.13,1.43,6.57,3.53,7.47v3A8,8,0,0,1,48.31,33.32Zm6.42-13.95H58.1v7.1h2.49v2.88H58.1v8.46H54.73Z"/><path class="cls-1" d="M60.67,28.15c0-3.64.44-6.1,1.7-7.46a4.59,4.59,0,0,1,6.4,0c1.23,1.36,1.69,3.82,1.69,7.46s-.46,6.14-1.69,7.49a4.69,4.69,0,0,1-6.4,0C61.11,34.29,60.67,31.83,60.67,28.15Zm6.48,0c0-3.09-.22-4.78-.72-5.49a1.1,1.1,0,0,0-.86-.42,1.05,1.05,0,0,0-.87.42c-.5.71-.7,2.4-.7,5.49s.2,4.84.7,5.53a1.05,1.05,0,0,0,.87.39,1.1,1.1,0,0,0,.86-.39C66.93,33,67.15,31.28,67.15,28.15Zm5.07-8.78h3.37V37.81H72.22Z"/><path class="cls-1" d="M81.32,19.69v6H83.9v-6h3.32v6.59h2.06V19.37h3.38V37.81H89.28V29.17H87.22v7.46H78V19.69Zm0,14.12H83.9V28.54H81.32Z"/><path class="cls-1" d="M103,19.69v3.2h7.63v-3.2H114V31.14h-5.5v3.09h6.36V37H98.77V34.23h6.39V31.14H99.64V19.69Zm0,8.61h7.63V25.73H103Z"/><path class="cls-1" d="M115.82,24.78a5.43,5.43,0,0,1,1.89-4.56,4.92,4.92,0,0,1,3.1-.95,5,5,0,0,1,3.09.95,5.42,5.42,0,0,1,1.87,4.56,5.47,5.47,0,0,1-1.87,4.57,4.87,4.87,0,0,1-3.09,1,4.8,4.8,0,0,1-3.1-1A5.48,5.48,0,0,1,115.82,24.78ZM117,31.2h3.37v3.91h10.49v2.8H117Zm5.53-6.42a3.12,3.12,0,0,0-.66-2.32,1.42,1.42,0,0,0-1.08-.45,1.53,1.53,0,0,0-1.11.45,3.13,3.13,0,0,0-.64,2.32,3.27,3.27,0,0,0,.64,2.36,1.53,1.53,0,0,0,1.11.4,1.42,1.42,0,0,0,1.08-.4A3.27,3.27,0,0,0,122.55,24.78Zm4.7-5.41h3.38V24H133v2.86h-2.37V32.3h-3.38Z"/><path class="cls-1" d="M140.77,19.31h1.16v2h2.91v1h-2.91v.57a4.27,4.27,0,0,0,3.2,4.27v1.09a5.81,5.81,0,0,1-3.76-2.94,5.75,5.75,0,0,1-3.78,3.13V27.38a4.52,4.52,0,0,0,3.18-4.51v-.55h-2.89v-1h2.89Zm-.28,15v2.26h11.83v1h-13V33.26h11.63V31H139.31V30h12.8v4.27Zm6.42-5.91V20H148v3.43H151V19.86h1.15V28.5H151V24.43H148v3.93Z"/><path class="cls-1" d="M163.24,30.19h-8.06V24.61H162V21.1h-6.79v-1h8v5.53h-6.78v3.58h7.11a7,7,0,0,0,4.26-1.08V19.86h1.18V32.42h-1.18V29.09A7.15,7.15,0,0,1,163.24,30.19Zm6,7.2h-13V32.3h1.18v4.05h11.8Z"/><path class="cls-1" d="M172.21,20.2h9.12v1.06h-4v6c0,4.31,2.12,6.69,4.14,7.71V36.1a8.53,8.53,0,0,1-4.72-5.32A8.5,8.5,0,0,1,172,36.1V35c2-1,4.14-3.4,4.14-7.71v-6h-3.93Zm12.51,17.08V19.86h1.18V37.28Z"/><path class="cls-2" d="M48.32,48.25v0a2.31,2.31,0,0,1-.74,1.79,2.76,2.76,0,0,1-2,.73,2.61,2.61,0,0,1-2.06-.92,3.42,3.42,0,0,1-.8-2.32V46.2a3.45,3.45,0,0,1,.8-2.33A2.61,2.61,0,0,1,45.58,43a2.86,2.86,0,0,1,2,.69,2.32,2.32,0,0,1,.73,1.83v0h-1a1.71,1.71,0,0,0-.46-1.27,1.76,1.76,0,0,0-1.31-.46,1.57,1.57,0,0,0-1.34.69,2.86,2.86,0,0,0-.51,1.73v1.37a2.84,2.84,0,0,0,.51,1.73,1.55,1.55,0,0,0,1.34.7,1.76,1.76,0,0,0,1.31-.46,1.73,1.73,0,0,0,.46-1.28Z"/><path class="cls-2" d="M52.08,46.94l2-3.88h1.15L52.56,48v2.68h-1V47.93L49,43.06h1.15Z"/><path class="cls-2" d="M56.29,50.69V43.06h2.43a2.93,2.93,0,0,1,1.83.52,1.84,1.84,0,0,1,.66,1.55,1.41,1.41,0,0,1-.29.88,1.81,1.81,0,0,1-.79.59,1.75,1.75,0,0,1,1.16.65,2.06,2.06,0,0,1,.43,1.28,1.93,1.93,0,0,1-.67,1.6,2.74,2.74,0,0,1-1.81.56Zm1-4.39h1.63a1.33,1.33,0,0,0,.92-.31,1.31,1.31,0,0,0,0-1.81,1.74,1.74,0,0,0-1.1-.3H57.3Zm0,.81v2.77h1.94a1.56,1.56,0,0,0,1.08-.35,1.28,1.28,0,0,0,.38-1,1.38,1.38,0,0,0-.39-1,1.56,1.56,0,0,0-1.05-.41h-2Z"/><path class="cls-2" d="M67,47.15H64v2.73h3.59v.81H63V43.06h4.55v.82H64v2.46H67Z"/><path class="cls-2" d="M69.77,47.38v3.31h-1V43.07h2.55a2.81,2.81,0,0,1,1.88.55,2,2,0,0,1,.64,1.62,1.75,1.75,0,0,1-.3,1,2,2,0,0,1-.87.69,1.52,1.52,0,0,1,.88.66,2.2,2.2,0,0,1,.27,1.13v.72a2.49,2.49,0,0,0,.08.64.93.93,0,0,0,.27.46v.13h-1a.86.86,0,0,1-.26-.53,4.17,4.17,0,0,1-.06-.71v-.7a1.41,1.41,0,0,0-.35-1,1.25,1.25,0,0,0-1-.38Zm0-.81h1.44a1.9,1.9,0,0,0,1.24-.33,1.28,1.28,0,0,0,.37-1,1.33,1.33,0,0,0-.36-1,1.6,1.6,0,0,0-1.15-.35H69.77Z"/><path class="cls-2" d="M82,48.76a1.16,1.16,0,0,0-.37-.86,2.87,2.87,0,0,0-1.28-.6,4.29,4.29,0,0,1-1.78-.85A1.81,1.81,0,0,1,78,45a1.9,1.9,0,0,1,.69-1.49,2.62,2.62,0,0,1,1.79-.6,2.58,2.58,0,0,1,1.88.69A2.11,2.11,0,0,1,83,45.23l0,0H82a1.4,1.4,0,0,0-.45-1.07,1.56,1.56,0,0,0-1.13-.42,1.51,1.51,0,0,0-1.09.35A1.18,1.18,0,0,0,79,45a1,1,0,0,0,.42.83,3.79,3.79,0,0,0,1.34.58,3.82,3.82,0,0,1,1.72.88,2,2,0,0,1,.59,1.43,1.82,1.82,0,0,1-.71,1.49,3,3,0,0,1-1.86.56,3.12,3.12,0,0,1-1.91-.62,1.9,1.9,0,0,1-.8-1.66v0h1a1.29,1.29,0,0,0,.54,1.11,2,2,0,0,0,1.2.39,1.8,1.8,0,0,0,1.14-.33A1.08,1.08,0,0,0,82,48.76Z"/><path class="cls-2" d="M88.56,47.15H85.49v2.73h3.59v.81h-4.6V43.06H89v.82H85.49v2.46h3.07Z"/><path class="cls-2" d="M95.6,48.25v0a2.27,2.27,0,0,1-.74,1.79,2.74,2.74,0,0,1-2,.73,2.63,2.63,0,0,1-2.07-.92A3.42,3.42,0,0,1,90,47.56V46.2a3.44,3.44,0,0,1,.79-2.33A2.63,2.63,0,0,1,92.87,43a2.88,2.88,0,0,1,2,.69,2.31,2.31,0,0,1,.72,1.83v0h-1a1.71,1.71,0,0,0-.46-1.27,1.75,1.75,0,0,0-1.3-.46,1.59,1.59,0,0,0-1.35.69,2.92,2.92,0,0,0-.5,1.73v1.37a2.9,2.9,0,0,0,.5,1.73,1.57,1.57,0,0,0,1.35.7,1.75,1.75,0,0,0,1.3-.46,1.73,1.73,0,0,0,.46-1.28Z"/><path class="cls-2" d="M102.44,43.06v5.07a2.5,2.5,0,0,1-.8,2,3,3,0,0,1-2.07.71,2.85,2.85,0,0,1-2-.71,2.56,2.56,0,0,1-.77-2V43.06h1v5.07a1.81,1.81,0,0,0,.49,1.36,1.71,1.71,0,0,0,1.26.5,1.85,1.85,0,0,0,1.34-.5,1.79,1.79,0,0,0,.52-1.36V43.06Z"/><path class="cls-2" d="M105.05,47.38v3.31h-1V43.07h2.55a2.78,2.78,0,0,1,1.87.55,2,2,0,0,1,.65,1.62,1.75,1.75,0,0,1-.3,1,2,2,0,0,1-.88.69,1.51,1.51,0,0,1,.89.66,2.2,2.2,0,0,1,.27,1.13v.72a2.12,2.12,0,0,0,.08.64,1,1,0,0,0,.26.46v.13h-1a.92.92,0,0,1-.26-.53,5.52,5.52,0,0,1,0-.71v-.7a1.37,1.37,0,0,0-.36-1,1.23,1.23,0,0,0-.94-.38Zm0-.81h1.44a1.85,1.85,0,0,0,1.23-.33,1.28,1.28,0,0,0,.38-1,1.3,1.3,0,0,0-.37-1,1.56,1.56,0,0,0-1.14-.35h-1.54Z"/><path class="cls-2" d="M111.84,50.69h-1V43.06h1Z"/><path class="cls-2" d="M118.76,43.88H116.3v6.81h-1V43.88h-2.43v-.82h5.9Z"/><path class="cls-2" d="M122.34,46.94l2-3.88h1.16L122.83,48v2.68h-1V47.93l-2.58-4.87h1.15Z"/><path class="cls-2" d="M134.49,48.25v0a2.31,2.31,0,0,1-.74,1.79,2.74,2.74,0,0,1-2,.73,2.62,2.62,0,0,1-2.07-.92,3.42,3.42,0,0,1-.8-2.32V46.2a3.45,3.45,0,0,1,.8-2.33,2.62,2.62,0,0,1,2.07-.92,2.85,2.85,0,0,1,2,.69,2.32,2.32,0,0,1,.73,1.83v0h-1a1.71,1.71,0,0,0-.46-1.27,1.75,1.75,0,0,0-1.3-.46,1.57,1.57,0,0,0-1.35.69,2.85,2.85,0,0,0-.5,1.73v1.37a2.83,2.83,0,0,0,.5,1.73,1.56,1.56,0,0,0,1.35.7,1.75,1.75,0,0,0,1.3-.46,1.73,1.73,0,0,0,.46-1.28Z"/><path class="cls-2" d="M141.46,50.69h-1V47.32h-3.63v3.37h-1V43.06h1v3.45h3.63V43.06h1Z"/><path class="cls-2" d="M147.16,48.72h-2.82l-.66,2h-1l2.69-7.63h.87l2.63,7.63h-1Zm-2.52-.86h2.23l-1.09-3.27h0Z"/><path class="cls-2" d="M151,49.88h3.64v.81h-4.65V43.06h1Z"/><path class="cls-2" d="M156.73,49.88h3.64v.81h-4.65V43.06h1Z"/><path class="cls-2" d="M165.57,47.15H162.5v2.73h3.59v.81h-4.6V43.06H166v.82H162.5v2.46h3.07Z"/><path class="cls-2" d="M172.94,50.69h-1l-3.6-5.82h0v5.81h-1V43.06h1l3.6,5.82h0V43.06h1Z"/><path class="cls-2" d="M180.06,49.66a2.49,2.49,0,0,1-.93.78,3.56,3.56,0,0,1-1.71.36,2.88,2.88,0,0,1-2.14-.88,3.12,3.12,0,0,1-.85-2.26V46.09a3.2,3.2,0,0,1,.82-2.26,3.06,3.06,0,0,1,4.07-.2,2.19,2.19,0,0,1,.71,1.73v0h-1a1.63,1.63,0,0,0-.44-1.16,1.86,1.86,0,0,0-2.64.19,2.57,2.57,0,0,0-.52,1.66v1.58a2.52,2.52,0,0,0,.55,1.67,1.78,1.78,0,0,0,1.42.66,2.54,2.54,0,0,0,1.05-.18,1.46,1.46,0,0,0,.58-.41V47.68h-1.7v-.8h2.71Z"/><path class="cls-2" d="M185.88,47.15h-3.07v2.73h3.59v.81h-4.6V43.06h4.55v.82h-3.54v2.46h3.07Z"/><path class="cls-3" d="M20.1,1.45A1.45,1.45,0,1,1,18.65,0,1.45,1.45,0,0,1,20.1,1.45Z"/><rect class="cls-4" x="18.15" y="1.45" width="1" height="17.42"/><polygon class="cls-3" points="32.53 7.33 19.72 11.29 19.72 3.36 32.53 7.33"/><path class="cls-3" d="M36.47,15.74H.83V43.15L18.65,57l17.82-13.8V15.74ZM32.82,41.37,18.65,52.31,4.48,41.37v-22H32.82Zm-4.07-7.26v5L18.65,47,8.55,39.11V23.46h20.2V31H25.1V27.11H12.2v9.76l6.45,5,6.45-5V34.11Z"/><path class="cls-4" d="M18.65,58,0,43.56V14.91H37.3V43.56Zm-17-15.25,17,13.16,17-13.16V16.57h-34Zm17,10.62-15-11.58V18.56h30V41.78ZM5.31,41,18.65,51.27,32,41V20.22H5.31Zm13.34,7.09L7.72,39.52V22.63H29.58v9.19H24.27V27.94H13v8.52l5.62,4.39,5.62-4.38V33.29h5.31v6.23ZM9.38,38.71,18.65,46l9.27-7.24V34.94h-2v2.34L18.65,43l-7.28-5.69v-11H25.93v3.88h2V24.29H9.38Z"/><polygon class="cls-2" points="4.34 25.71 4.34 19.25 32.96 19.25 32.96 41.12 36.34 42.93 36.34 15.88 0.97 15.88 0.97 23.9 4.34 25.71"/><polygon class="cls-2" points="12.06 29.87 12.06 26.97 25.24 26.97 25.24 30.85 28.61 30.85 28.61 23.6 8.69 23.6 8.69 28.06 12.06 29.87"/><polygon class="cls-2" points="25.24 36.94 25.22 36.95 28.61 38.78 28.61 34.25 25.24 34.25 25.24 36.94"/><path class="cls-1" d="M211,35.76,200,48.43h14.33v2.11H196.81v-2L209,34.43a8.4,8.4,0,0,0,2.45-5.86c0-3.88-2.34-6.77-6.36-6.77s-6.37,2.93-6.37,6.77v.86h-2.37v-.9c0-4.81,3.06-8.88,8.74-8.88s8.73,4.07,8.73,8.88C213.86,31.3,213.29,33.14,211,35.76Z"/><path class="cls-1" d="M232.18,48.2c-1.45,1.87-3.71,2.85-6.66,2.85a8,8,0,0,1-6.67-2.85c-1.88-2.43-2.8-5.83-2.8-12.87s.92-10.4,2.8-12.79a9.13,9.13,0,0,1,13.33,0c1.88,2.39,2.8,5.83,2.8,12.79S234.06,45.77,232.18,48.2ZM230.5,24.07a6.61,6.61,0,0,0-10,0c-1.41,1.84-2.1,5-2.1,11.26s.69,9.46,2.1,11.3a6.53,6.53,0,0,0,10,0c1.42-1.84,2.11-5,2.11-11.3S231.92,25.91,230.5,24.07Z"/><path class="cls-1" d="M251.65,35.76l-11,12.67H255v2.11H237.51v-2l12.23-14.12a8.4,8.4,0,0,0,2.45-5.86c0-3.88-2.34-6.77-6.36-6.77s-6.36,2.93-6.36,6.77v.86h-2.38v-.9c0-4.81,3.07-8.88,8.74-8.88s8.74,4.07,8.74,8.88C254.57,31.3,254,33.14,251.65,35.76Z"/><path class="cls-1" d="M272,35.76,261,48.43h14.34v2.11H257.86v-2l12.23-14.12a8.4,8.4,0,0,0,2.45-5.86c0-3.88-2.34-6.77-6.36-6.77s-6.36,2.93-6.36,6.77v.86h-2.38v-.9c0-4.81,3.07-8.88,8.74-8.88s8.74,4.07,8.74,8.88C274.92,31.3,274.34,33.14,272,35.76Z"/></g></g></svg>