<svg xmlns="http://www.w3.org/2000/svg" viewBox="0 0 132.73 132.73"><defs><style>.cls-1,.cls-2,.cls-3{fill:none;stroke:#fff;stroke-miterlimit:10;stroke-width:2.93px;}.cls-1{opacity:0.1;}.cls-2{opacity:0.4;}.cls-4{fill:#888;}.cls-5{fill:#676767;}.cls-6{fill:#d1d1d1;}.cls-7{fill:#fff;}.cls-8{fill:#bababa;}.cls-9{fill:#ececec;}.cls-10{fill:#999;}</style></defs><g id="레이어_2" data-name="레이어 2"><g id="레이어_1-2" data-name="레이어 1"><circle class="cls-1" cx="66.36" cy="66.36" r="64.9"/><circle class="cls-2" cx="66.36" cy="66.36" r="57.82"/><circle class="cls-3" cx="66.36" cy="66.36" r="50.41"/><rect class="cls-4" x="74.46" y="66.85" width="12.34" height="12.29"/><rect class="cls-5" x="74.46" y="66.85" width="2.95" height="12.29"/><path class="cls-6" d="M58.48,90.93A4,4,0,0,1,56,90.06a4,4,0,0,1-2,.52,4,4,0,0,1-3.47-2,3.92,3.92,0,0,1-3.17,0,4,4,0,0,1-2.14,1.85,4.15,4.15,0,0,1-1.37.24,4,4,0,0,1-.37-8,4.05,4.05,0,0,1,1.78.23l0,0a.24.24,0,0,0,.29-.1l0,0A4,4,0,0,1,49,80.88a3.93,3.93,0,0,1,1.42.26,4,4,0,0,1,2,1.58.23.23,0,0,0,.28.1A4,4,0,0,1,54,82.59a3.92,3.92,0,0,1,2.36.77.26.26,0,0,0,.27,0,4,4,0,1,1,1.83,7.55Z"/><path class="cls-7" d="M95,37.62v9.22S80.24,69.22,80.24,65.15l-14-17.66V37.62Z"/><path class="cls-8" d="M45.24,90.37a4.15,4.15,0,0,1-1.37.24,4,4,0,0,1-.37-8,4.05,4.05,0,0,1,1.78.23,4.08,4.08,0,0,0,0,7.51Z"/><path class="cls-8" d="M50.44,81.14a4.07,4.07,0,0,0-1.8,1.58.26.26,0,0,1-.3.1,4.11,4.11,0,0,0-1.86-.26,4.36,4.36,0,0,0-.83.17A4,4,0,0,1,49,80.88a3.93,3.93,0,0,1,1.42.26Z"/><path class="cls-9" d="M66.28,62.41V37.62h2.9V62.41c0,4.07-2.9,4.07-2.9,0Z"/><path class="cls-10" d="M73.88,86.65V95.9H36.3A1.47,1.47,0,0,1,34.89,94l1.8-6.29a1.47,1.47,0,0,1,1.42-1.07Z"/><path class="cls-4" d="M41.06,86.65a1.49,1.49,0,0,0-1.42,1.07L37.84,94a1.48,1.48,0,0,0,1.42,1.89h-3A1.47,1.47,0,0,1,34.89,94l1.8-6.29a1.47,1.47,0,0,1,1.42-1.07Z"/><path class="cls-10" d="M95.9,75.46V94.94a1,1,0,0,1-1,1H66.32a1,1,0,0,1-1-1V75.46a1,1,0,0,1,1-1H94.94a1,1,0,0,1,1,1Z"/><path class="cls-7" d="M88.91,82.47v5.46a.72.72,0,0,1-.72.72H73.06a.71.71,0,0,1-.71-.72V82.47a.71.71,0,0,1,.71-.72H88.19a.72.72,0,0,1,.72.72Z"/><path class="cls-4" d="M69.3,95.9h-3a1,1,0,0,1-1-1V75.46a1,1,0,0,1,1-1h3a1,1,0,0,0-1,1V94.91a1,1,0,0,0,1,1Z"/><path class="cls-9" d="M76,88.65h-3a.71.71,0,0,1-.71-.72V82.47a.71.71,0,0,1,.71-.72h3a.74.74,0,0,0-.74.74v5.42a.74.74,0,0,0,.74.74Z"/><path class="cls-10" d="M95.9,35.79v3.67a1,1,0,0,1-1,1H65.54a1,1,0,0,1-1-1V35.79a1,1,0,0,1,1-1h29.4a1,1,0,0,1,1,1Z"/><path class="cls-4" d="M68.52,40.42h-3a1,1,0,0,1-1-1V35.79a1,1,0,0,1,1-1h3a1,1,0,0,0-1,1v3.62a1,1,0,0,0,1,1Z"/><path class="cls-6" d="M95,46.84V62.41a7.38,7.38,0,0,1-7.38,7.37H73.65a8.32,8.32,0,0,1-1.12-.08L72,69.59a7.38,7.38,0,0,1-5.71-7V47.49a4.67,4.67,0,0,1,2.24-.64,3.61,3.61,0,0,1,.66,0,4.14,4.14,0,0,1,2.12.94.12.12,0,0,0,.15,0,4.21,4.21,0,0,1,4-.24.12.12,0,0,0,.17-.06,4.18,4.18,0,0,1,7.66,0,.11.11,0,0,0,.19,0,4.18,4.18,0,0,1,6-.1.11.11,0,0,0,.17,0,4.31,4.31,0,0,1,5.3-.59Z"/><path class="cls-8" d="M76.55,69.78h-2.9a8.32,8.32,0,0,1-1.12-.08L72,69.59a7.4,7.4,0,0,1-5.71-7V47.49a4.67,4.67,0,0,1,2.24-.64,3.61,3.61,0,0,1,.66,0V62.39a7.38,7.38,0,0,0,7.37,7.39Z"/><path class="cls-7" d="M51.63,70.89a1.2,1.2,0,0,1-2.39,0,1.2,1.2,0,1,1,2.39,0Z"/><path class="cls-7" d="M51.51,68.49a.58.58,0,0,1-.42-.18.92.92,0,0,0-.65-.26.91.91,0,0,0-.65.26.59.59,0,1,1-.84-.83,2.1,2.1,0,0,1,3,0,.59.59,0,0,1,0,.83.59.59,0,0,1-.42.18Z"/><path class="cls-7" d="M53.36,66.63a.58.58,0,0,1-.42-.17,3.55,3.55,0,0,0-5,0,.59.59,0,0,1-.84-.84,4.74,4.74,0,0,1,6.69,0,.6.6,0,0,1,0,.84.58.58,0,0,1-.42.17Z"/><path class="cls-7" d="M55.22,64.78a.61.61,0,0,1-.42-.17,6.16,6.16,0,0,0-8.72,0,.59.59,0,0,1-.84-.84,7.35,7.35,0,0,1,10.39,0,.59.59,0,0,1-.41,1Z"/></g></g></svg>