<svg xmlns="http://www.w3.org/2000/svg" viewBox="0 0 132.73 132.73"><defs><style>.cls-1,.cls-2,.cls-3{fill:none;stroke:#fff;stroke-miterlimit:10;stroke-width:2.93px;}.cls-1{opacity:0.1;}.cls-2{opacity:0.4;}.cls-4{fill:#fff;}.cls-5{fill:#b5b5b5;}.cls-6{fill:#d1d1d1;}.cls-7{fill:#8e8e8e;}.cls-8{fill:#e5e5e5;}</style></defs><g id="레이어_2" data-name="레이어 2"><g id="레이어_1-2" data-name="레이어 1"><circle class="cls-1" cx="66.36" cy="66.36" r="64.9"/><circle class="cls-2" cx="66.36" cy="66.36" r="57.82"/><circle class="cls-3" cx="66.36" cy="66.36" r="50.41"/><path class="cls-4" d="M39.63,58.9H82.4a4.26,4.26,0,0,1,4.28,4.27V91a4.27,4.27,0,0,1-4.28,4.28H39.63A4.27,4.27,0,0,1,35.36,91V63.17a4.26,4.26,0,0,1,4.27-4.27Z"/><path class="cls-5" d="M47.12,86.69h2.14a1.07,1.07,0,0,1,1.07,1.07V89.9A1.07,1.07,0,0,1,49.26,91H47.12a1.07,1.07,0,0,1-1.07-1.07V87.76a1.07,1.07,0,0,1,1.07-1.07Z"/><path class="cls-5" d="M55.67,86.69h2.14a1.07,1.07,0,0,1,1.07,1.07V89.9A1.07,1.07,0,0,1,57.81,91H55.67A1.07,1.07,0,0,1,54.6,89.9V87.76a1.07,1.07,0,0,1,1.07-1.07Z"/><path class="cls-6" d="M64.22,86.69h2.14a1.07,1.07,0,0,1,1.07,1.07V89.9A1.07,1.07,0,0,1,66.36,91H64.22a1.07,1.07,0,0,1-1.07-1.07V87.76a1.07,1.07,0,0,1,1.07-1.07Z"/><path class="cls-6" d="M72.78,86.69h2.14A1.06,1.06,0,0,1,76,87.76V89.9A1.06,1.06,0,0,1,74.92,91H72.78a1.06,1.06,0,0,1-1.07-1.07V87.76a1.06,1.06,0,0,1,1.07-1.07Z"/><path class="cls-5" d="M64.22,64.24H57.81a1.07,1.07,0,0,1,0-2.14h6.41a1.07,1.07,0,1,1,0,2.14Z"/><path class="cls-5" d="M62.09,68.52H60a1.07,1.07,0,0,1,0-2.14h2.14a1.07,1.07,0,0,1,0,2.14Z"/><path class="cls-5" d="M97.37,71.69a1,1,0,0,1-.31.78,1,1,0,0,1-.77.32H92a1,1,0,0,1-.77-.32,1,1,0,0,1-.31-.78l0-1,.18-6.42L92,35.32a2.14,2.14,0,0,1,2.16-2.08h.1a2.14,2.14,0,0,1,2.16,2.08Z"/><path class="cls-7" d="M91.16,64.24,91,70.66h-4.3V64.24Z"/><path class="cls-4" d="M76.82,45.58a1.09,1.09,0,0,1-.84-.4,19.23,19.23,0,0,0-30.16,0,1.07,1.07,0,1,1-1.67-1.33,21.36,21.36,0,0,1,33.51,0A1.08,1.08,0,0,1,77.78,45a1.05,1.05,0,0,1-1,.6Z"/><path class="cls-4" d="M71.79,49.56a1.07,1.07,0,0,1-.83-.4,12.83,12.83,0,0,0-20.12,0,1.07,1.07,0,1,1-1.67-1.33,15,15,0,0,1,23.46,0,1.06,1.06,0,0,1-.84,1.73Z"/><path class="cls-8" d="M66.76,53.55a1.06,1.06,0,0,1-.84-.41,6.4,6.4,0,0,0-10,0,1.07,1.07,0,0,1-1.68-1.32,8.53,8.53,0,0,1,13.4,0A1.08,1.08,0,0,1,67.72,53a1.06,1.06,0,0,1-1,.6Z"/></g></g></svg>