<svg xmlns="http://www.w3.org/2000/svg" xmlns:xlink="http://www.w3.org/1999/xlink" viewBox="0 0 157.58 157.58"><defs><style>.cls-1{fill:url(#무제_그라디언트_7);}.cls-2{fill:url(#무제_그라디언트_7-2);}.cls-3{fill:url(#무제_그라디언트_7-3);}.cls-4{fill:url(#무제_그라디언트_7-4);}.cls-5{fill:url(#무제_그라디언트_7-5);}.cls-6{fill:url(#무제_그라디언트_7-6);}.cls-7{fill:url(#무제_그라디언트_7-7);}.cls-8{fill:url(#무제_그라디언트_7-8);}.cls-9{fill:url(#무제_그라디언트_7-9);}.cls-10{fill:url(#무제_그라디언트_7-10);}.cls-11{fill:url(#무제_그라디언트_7-11);}.cls-12{fill:url(#무제_그라디언트_7-12);}.cls-13{fill:url(#무제_그라디언트_7-13);}.cls-14{fill:url(#무제_그라디언트_7-14);}.cls-15{fill:url(#무제_그라디언트_7-15);}.cls-16{fill:url(#무제_그라디언트_7-16);}.cls-17{fill:url(#무제_그라디언트_7-17);}.cls-18{fill:url(#무제_그라디언트_7-18);}.cls-19{fill:url(#무제_그라디언트_7-19);}.cls-20{fill:url(#무제_그라디언트_7-20);}.cls-21{fill:url(#무제_그라디언트_7-21);}.cls-22{fill:url(#무제_그라디언트_7-22);}.cls-23{fill:url(#무제_그라디언트_7-23);}.cls-24{fill:url(#무제_그라디언트_7-24);}.cls-25{fill:url(#무제_그라디언트_7-25);}.cls-26{fill:url(#무제_그라디언트_7-26);}.cls-27{fill:url(#무제_그라디언트_7-27);}.cls-28{fill:url(#무제_그라디언트_7-28);}.cls-29{fill:url(#무제_그라디언트_7-29);}.cls-30{fill:url(#무제_그라디언트_7-30);}.cls-31{fill:url(#무제_그라디언트_7-31);}.cls-32{fill:url(#무제_그라디언트_7-32);}.cls-33{fill:url(#무제_그라디언트_7-33);}.cls-34{fill:url(#무제_그라디언트_7-34);}.cls-35{fill:url(#무제_그라디언트_7-35);}.cls-36{fill:url(#무제_그라디언트_7-36);}.cls-37,.cls-38,.cls-39{fill:none;stroke:#fff;stroke-miterlimit:10;stroke-width:3px;}.cls-37{opacity:0.1;}.cls-38{opacity:0.4;}.cls-40{fill:#ababab;}.cls-41{fill:#9b9b9b;}.cls-42{fill:#6d6d6d;}.cls-43{fill:#cbcbcb;}.cls-44{fill:#434343;}.cls-45{fill:#595959;}.cls-46{fill:#fff;}</style><linearGradient id="무제_그라디언트_7" x1="78.81" y1="-16.22" x2="78.81" y2="206.4" gradientUnits="userSpaceOnUse"><stop offset="0" stop-color="#fff"/><stop offset="1" stop-color="#fff" stop-opacity="0"/></linearGradient><linearGradient id="무제_그라디언트_7-2" x1="65.71" y1="-16.22" x2="65.71" y2="206.4" gradientTransform="translate(1.78 -11.34) rotate(10)" xlink:href="#무제_그라디언트_7"/><linearGradient id="무제_그라디언트_7-3" x1="53" y1="-16.22" x2="53" y2="206.4" gradientTransform="translate(5.89 -17.65) rotate(20)" xlink:href="#무제_그라디언트_7"/><linearGradient id="무제_그라디언트_7-4" x1="41.08" y1="-16.22" x2="41.08" y2="206.4" gradientTransform="translate(12.22 -18.74) rotate(30)" xlink:href="#무제_그라디언트_7"/><linearGradient id="무제_그라디언트_7-5" x1="30.3" y1="-16.22" x2="30.3" y2="206.4" gradientTransform="translate(20.57 -14.57) rotate(40)" xlink:href="#무제_그라디언트_7"/><linearGradient id="무제_그라디언트_7-6" x1="21" y1="-16.22" x2="21" y2="206.4" gradientTransform="translate(30.69 -5.27) rotate(50)" xlink:href="#무제_그라디언트_7"/><linearGradient id="무제_그라디언트_7-7" x1="13.45" y1="-16.22" x2="13.45" y2="206.4" gradientTransform="translate(42.27 8.87) rotate(60)" xlink:href="#무제_그라디언트_7"/><linearGradient id="무제_그라디언트_7-8" x1="7.89" y1="-16.22" x2="7.89" y2="206.4" gradientTransform="translate(54.96 27.43) rotate(70)" xlink:href="#무제_그라디언트_7"/><linearGradient id="무제_그라디언트_7-9" x1="4.48" y1="-16.22" x2="4.48" y2="206.4" gradientTransform="translate(68.37 49.85) rotate(80)" xlink:href="#무제_그라디언트_7"/><linearGradient id="무제_그라디언트_7-10" x1="3.33" y1="-16.22" x2="3.33" y2="206.4" gradientTransform="translate(82.1 75.44) rotate(90)" xlink:href="#무제_그라디언트_7"/><linearGradient id="무제_그라디언트_7-11" x1="4.47" y1="-16.22" x2="4.47" y2="206.4" gradientTransform="translate(95.73 103.42) rotate(100)" xlink:href="#무제_그라디언트_7"/><linearGradient id="무제_그라디언트_7-12" x1="7.88" y1="-16.22" x2="7.88" y2="206.4" gradientTransform="translate(108.84 132.95) rotate(110)" xlink:href="#무제_그라디언트_7"/><linearGradient id="무제_그라디언트_7-13" x1="13.43" y1="-16.22" x2="13.43" y2="206.4" gradientTransform="translate(121.04 163.12) rotate(120)" xlink:href="#무제_그라디언트_7"/><linearGradient id="무제_그라디언트_7-14" x1="20.97" y1="-16.22" x2="20.97" y2="206.4" gradientTransform="translate(131.95 193.02) rotate(130)" xlink:href="#무제_그라디언트_7"/><linearGradient id="무제_그라디언트_7-15" x1="30.27" y1="-16.22" x2="30.27" y2="206.4" gradientTransform="translate(141.25 221.75) rotate(140)" xlink:href="#무제_그라디언트_7"/><linearGradient id="무제_그라디언트_7-16" x1="41.04" y1="-16.22" x2="41.04" y2="206.4" gradientTransform="translate(148.65 248.43) rotate(150)" xlink:href="#무제_그라디언트_7"/><linearGradient id="무제_그라디언트_7-17" x1="52.96" y1="-16.22" x2="52.96" y2="206.4" gradientTransform="translate(153.92 272.24) rotate(160)" xlink:href="#무제_그라디언트_7"/><linearGradient id="무제_그라디언트_7-18" x1="65.67" y1="-16.22" x2="65.67" y2="206.4" gradientTransform="translate(156.92 292.47) rotate(170)" xlink:href="#무제_그라디언트_7"/><linearGradient id="무제_그라디언트_7-19" x1="78.77" y1="-16.22" x2="78.77" y2="206.4" gradientTransform="translate(157.54 308.5) rotate(-180)" xlink:href="#무제_그라디언트_7"/><linearGradient id="무제_그라디언트_7-20" x1="91.87" y1="-16.22" x2="91.87" y2="206.4" gradientTransform="translate(155.76 319.84) rotate(-170)" xlink:href="#무제_그라디언트_7"/><linearGradient id="무제_그라디언트_7-21" x1="104.58" y1="-16.22" x2="104.58" y2="206.4" gradientTransform="translate(151.65 326.15) rotate(-160)" xlink:href="#무제_그라디언트_7"/><linearGradient id="무제_그라디언트_7-22" x1="116.5" y1="-16.22" x2="116.5" y2="206.4" gradientTransform="translate(145.31 327.24) rotate(-150)" xlink:href="#무제_그라디언트_7"/><linearGradient id="무제_그라디언트_7-23" x1="127.28" y1="-16.22" x2="127.28" y2="206.4" gradientTransform="translate(136.97 323.07) rotate(-140)" xlink:href="#무제_그라디언트_7"/><linearGradient id="무제_그라디언트_7-24" x1="136.58" y1="-16.22" x2="136.58" y2="206.4" gradientTransform="translate(126.85 313.77) rotate(-130)" xlink:href="#무제_그라디언트_7"/><linearGradient id="무제_그라디언트_7-25" x1="144.13" y1="-16.22" x2="144.13" y2="206.4" gradientTransform="translate(115.27 299.63) rotate(-120)" xlink:href="#무제_그라디언트_7"/><linearGradient id="무제_그라디언트_7-26" x1="149.69" y1="-16.22" x2="149.69" y2="206.4" gradientTransform="translate(102.58 281.06) rotate(-110)" xlink:href="#무제_그라디언트_7"/><linearGradient id="무제_그라디언트_7-27" x1="153.1" y1="-16.22" x2="153.1" y2="206.4" gradientTransform="translate(89.17 258.65) rotate(-100)" xlink:href="#무제_그라디언트_7"/><linearGradient id="무제_그라디언트_7-28" x1="154.25" y1="-16.22" x2="154.25" y2="206.4" gradientTransform="translate(75.44 233.06) rotate(-90)" xlink:href="#무제_그라디언트_7"/><linearGradient id="무제_그라디언트_7-29" x1="153.11" y1="-16.22" x2="153.11" y2="206.4" gradientTransform="translate(61.81 205.08) rotate(-80)" xlink:href="#무제_그라디언트_7"/><linearGradient id="무제_그라디언트_7-30" x1="149.71" y1="-16.22" x2="149.71" y2="206.4" gradientTransform="translate(48.7 175.55) rotate(-70)" xlink:href="#무제_그라디언트_7"/><linearGradient id="무제_그라디언트_7-31" x1="144.15" y1="-16.22" x2="144.15" y2="206.4" gradientTransform="translate(36.5 145.38) rotate(-60)" xlink:href="#무제_그라디언트_7"/><linearGradient id="무제_그라디언트_7-32" x1="136.61" y1="-16.22" x2="136.61" y2="206.4" gradientTransform="translate(25.58 115.47) rotate(-50)" xlink:href="#무제_그라디언트_7"/><linearGradient id="무제_그라디언트_7-33" x1="127.31" y1="-16.22" x2="127.31" y2="206.4" gradientTransform="translate(16.29 86.75) rotate(-40)" xlink:href="#무제_그라디언트_7"/><linearGradient id="무제_그라디언트_7-34" x1="116.54" y1="-16.22" x2="116.54" y2="206.4" gradientTransform="translate(8.89 60.07) rotate(-30)" xlink:href="#무제_그라디언트_7"/><linearGradient id="무제_그라디언트_7-35" x1="104.62" y1="-16.22" x2="104.62" y2="206.4" gradientTransform="translate(3.61 36.26) rotate(-20)" xlink:href="#무제_그라디언트_7"/><linearGradient id="무제_그라디언트_7-36" x1="91.92" y1="-16.22" x2="91.92" y2="206.4" gradientTransform="translate(0.62 16.03) rotate(-10)" xlink:href="#무제_그라디언트_7"/></defs><g id="레이어_2" data-name="레이어 2"><g id="레이어_1-2" data-name="레이어 1"><rect class="cls-1" x="75.48" width="6.66" height="6.66"/><rect class="cls-2" x="62.38" y="1.14" width="6.66" height="6.66" transform="translate(0.22 11.48) rotate(-10)"/><rect class="cls-3" x="49.67" y="4.54" width="6.66" height="6.66" transform="translate(0.5 18.6) rotate(-20)"/><rect class="cls-4" x="37.75" y="10.1" width="6.66" height="6.66" transform="translate(-1.21 22.34) rotate(-30)"/><rect class="cls-5" x="26.97" y="17.64" width="6.66" height="6.66" transform="translate(-6.39 24.39) rotate(-40)"/><rect class="cls-6" x="17.67" y="26.94" width="6.66" height="6.66" transform="translate(-15.69 26.9) rotate(-50)"/><rect class="cls-7" x="10.12" y="37.71" width="6.66" height="6.66" transform="translate(-28.82 32.17) rotate(-60)"/><rect class="cls-8" x="4.56" y="49.63" width="6.66" height="6.66" transform="translate(-44.58 42.26) rotate(-70)"/><rect class="cls-9" x="1.15" y="62.33" width="6.66" height="6.66" transform="matrix(0.17, -0.98, 0.98, 0.17, -60.96, 58.68)"/><rect class="cls-10" y="75.44" width="6.66" height="6.66" transform="translate(-75.44 82.1) rotate(-90)"/><rect class="cls-11" x="1.14" y="88.54" width="6.66" height="6.66" transform="translate(-85.22 112.23) rotate(-100)"/><rect class="cls-12" x="4.54" y="101.25" width="6.66" height="6.66" transform="translate(-87.7 147.75) rotate(-110)"/><rect class="cls-13" x="10.1" y="113.17" width="6.66" height="6.66" transform="translate(-80.75 186.38) rotate(-120)"/><rect class="cls-14" x="17.64" y="123.95" width="6.66" height="6.66" transform="matrix(-0.64, -0.77, 0.77, -0.64, -63.05, 225.15)"/><rect class="cls-15" x="26.94" y="133.25" width="6.66" height="6.66" transform="translate(-34.34 260.66) rotate(-140)"/><rect class="cls-16" x="37.71" y="140.8" width="6.66" height="6.66" transform="translate(4.52 289.47) rotate(-150)"/><rect class="cls-17" x="49.63" y="146.36" width="6.66" height="6.66" transform="translate(51.53 308.47) rotate(-160)"/><rect class="cls-18" x="62.33" y="149.77" width="6.66" height="6.66" transform="translate(103.75 315.27) rotate(-170)"/><rect class="cls-19" x="75.44" y="150.92" width="6.66" height="6.66" transform="translate(157.54 308.5) rotate(180)"/><rect class="cls-20" x="88.54" y="149.77" width="6.66" height="6.66" transform="translate(208.94 287.93) rotate(170)"/><rect class="cls-21" x="101.25" y="146.37" width="6.66" height="6.66" transform="translate(254.05 254.61) rotate(160)"/><rect class="cls-22" x="113.17" y="140.82" width="6.66" height="6.66" transform="translate(289.47 210.73) rotate(150)"/><rect class="cls-23" x="123.95" y="133.28" width="6.66" height="6.66" transform="translate(312.59 159.45) rotate(140)"/><rect class="cls-24" x="133.25" y="123.98" width="6.66" height="6.66" transform="translate(321.9 104.52) rotate(130)"/><rect class="cls-25" x="140.8" y="113.21" width="6.66" height="6.66" transform="translate(317.12 49.99) rotate(120)"/><rect class="cls-26" x="146.36" y="101.29" width="6.66" height="6.66" transform="translate(299.2 -0.26) rotate(110)"/><rect class="cls-27" x="149.77" y="88.58" width="6.66" height="6.66" transform="translate(270.2 -42.9) rotate(100)"/><rect class="cls-28" x="150.92" y="75.48" width="6.66" height="6.66" transform="translate(233.06 -75.44) rotate(90)"/><rect class="cls-29" x="149.77" y="62.38" width="6.66" height="6.66" transform="translate(191.23 -96.48) rotate(80)"/><rect class="cls-30" x="146.37" y="49.67" width="6.66" height="6.66" transform="translate(148.31 -105.8) rotate(70)"/><rect class="cls-31" x="140.82" y="37.75" width="6.66" height="6.66" transform="translate(107.65 -104.3) rotate(60)"/><rect class="cls-32" x="133.28" y="26.97" width="6.66" height="6.66" transform="translate(72.01 -93.82) rotate(50)"/><rect class="cls-33" x="123.98" y="17.67" width="6.66" height="6.66" transform="translate(43.28 -76.92) rotate(40)"/><rect class="cls-34" x="113.21" y="10.12" width="6.66" height="6.66" transform="translate(22.34 -56.47) rotate(30)"/><rect class="cls-35" x="101.29" y="4.56" width="6.66" height="6.66" transform="translate(9.01 -35.31) rotate(20)"/><rect class="cls-36" x="88.58" y="1.15" width="6.66" height="6.66" transform="translate(2.17 -15.89) rotate(10)"/><circle class="cls-37" cx="78.79" cy="78.79" r="66.45"/><circle class="cls-38" cx="78.79" cy="78.79" r="59.21"/><circle class="cls-39" cx="78.79" cy="78.79" r="51.61"/><path class="cls-40" d="M55.83,57.4a.93.93,0,0,1-.93-.93v-5a.93.93,0,1,1,1.85,0v5a.93.93,0,0,1-.92.93Z"/><path class="cls-40" d="M101.76,57.4a.93.93,0,0,1-.93-.93v-5a.93.93,0,1,1,1.85,0v5a.93.93,0,0,1-.92.93Z"/><path class="cls-41" d="M52.71,92.91H59L57.72,57.18a.74.74,0,0,0-.74-.71H54.67a.74.74,0,0,0-.74.71Z"/><path class="cls-42" d="M58.84,89.92l.11,3H52.71l.1-3Z"/><path class="cls-43" d="M58.3,49.6a2.48,2.48,0,1,1-2.47-2.47A2.48,2.48,0,0,1,58.3,49.6Z"/><path class="cls-44" d="M105.51,109.14H98a1.24,1.24,0,0,1-1.24-1.24v-2.51h10v2.51a1.24,1.24,0,0,1-1.24,1.24Z"/><path class="cls-44" d="M52.07,109.14h7.51a1.24,1.24,0,0,0,1.24-1.24v-2.51h-10v2.51a1.24,1.24,0,0,0,1.24,1.24Z"/><path class="cls-43" d="M108.26,105.39H49.32a1.23,1.23,0,0,1-1.23-1.23v-10a1.24,1.24,0,0,1,1.23-1.24h58.94a1.24,1.24,0,0,1,1.23,1.24v10a1.23,1.23,0,0,1-1.23,1.23Z"/><path class="cls-40" d="M107.25,92.91v9a1.25,1.25,0,0,1-1.25,1.25H48.09v1a1.23,1.23,0,0,0,1.23,1.23h58.94a1.23,1.23,0,0,0,1.23-1.23v-10a1.24,1.24,0,0,0-1.23-1.24Z"/><path class="cls-45" d="M104.25,100.91V97.4a.74.74,0,0,0-.74-.74h-2.26a.74.74,0,0,0-.74.74v3.51a.74.74,0,0,0,.74.74h2.26a.74.74,0,0,0,.74-.74Z"/><path class="cls-45" d="M97.26,100.91V97.4a.74.74,0,0,0-.74-.74H94.26a.74.74,0,0,0-.74.74v3.51a.74.74,0,0,0,.74.74h2.26a.74.74,0,0,0,.74-.74Z"/><path class="cls-45" d="M90.27,100.91V97.4a.74.74,0,0,0-.74-.74H87.27a.74.74,0,0,0-.74.74v3.51a.74.74,0,0,0,.74.74h2.26a.74.74,0,0,0,.74-.74Z"/><path class="cls-45" d="M83.28,100.91V97.4a.74.74,0,0,0-.74-.74H80.28a.74.74,0,0,0-.74.74v3.51a.74.74,0,0,0,.74.74h2.26a.74.74,0,0,0,.74-.74Z"/><path class="cls-41" d="M104.88,92.91H98.64l1.22-35.73a.74.74,0,0,1,.74-.71h2.31a.74.74,0,0,1,.74.71Z"/><path class="cls-42" d="M98.74,89.92l-.1,3h6.24l-.11-3Z"/><path class="cls-46" d="M53.33,100.91V97.4a.74.74,0,0,1,.74-.74h3.51a.74.74,0,0,1,.74.74v3.51a.74.74,0,0,1-.74.74H54.07a.74.74,0,0,1-.74-.74Z"/><path class="cls-43" d="M104.23,49.6a2.48,2.48,0,1,1-2.47-2.47,2.48,2.48,0,0,1,2.47,2.47Z"/><path class="cls-46" d="M80.66,81.56a1.87,1.87,0,1,1-1.87-1.88,1.87,1.87,0,0,1,1.87,1.88Z"/><path class="cls-46" d="M80.47,77.8a.93.93,0,0,1-.66-.27,1.42,1.42,0,0,0-2,0,.93.93,0,0,1-1.31-1.31,3.28,3.28,0,0,1,4.66,0,.93.93,0,0,1-.65,1.58Z"/><path class="cls-46" d="M83.37,74.89a.92.92,0,0,1-.65-.27,5.58,5.58,0,0,0-7.86,0,.93.93,0,0,1-1.31-1.31,7.42,7.42,0,0,1,10.48,0,.93.93,0,0,1-.66,1.58Z"/><path class="cls-46" d="M86.28,72a.93.93,0,0,1-.66-.27,9.66,9.66,0,0,0-13.66,0,.93.93,0,0,1-1.31,0,.91.91,0,0,1,0-1.31,11.5,11.5,0,0,1,16.28,0A.93.93,0,0,1,86.28,72Z"/></g></g></svg>