<svg xmlns="http://www.w3.org/2000/svg" viewBox="0 0 114.92 114.92"><defs><style>.cls-1,.cls-2{fill:none;stroke:#fff;stroke-miterlimit:10;stroke-width:2.84px;}.cls-1{opacity:0.4;}.cls-3{fill:#9b9b9b;}.cls-4{fill:#434343;}.cls-5{fill:#fff;}.cls-6{fill:#37494d;}.cls-7{fill:#494949;}.cls-8{fill:#5e5e5e;}.cls-9{fill:#e5e5e5;}</style></defs><g id="레이어_2" data-name="레이어 2"><g id="레이어_1-2" data-name="레이어 1"><circle class="cls-1" cx="57.46" cy="57.46" r="56.04"/><circle class="cls-2" cx="57.46" cy="57.46" r="48.85"/><path class="cls-3" d="M84.76,76.4H30.16A3.18,3.18,0,0,1,27,73.22V36.38a3.18,3.18,0,0,1,3.18-3.18h54.6a3.18,3.18,0,0,1,3.18,3.18V73.22a3.18,3.18,0,0,1-3.18,3.18Z"/><rect class="cls-4" x="62.16" y="38.48" width="20.98" height="8.88"/><rect class="cls-5" x="62.16" y="52.4" width="4.11" height="4.11"/><rect class="cls-5" x="70.59" y="52.4" width="4.11" height="4.11"/><rect class="cls-5" x="79.03" y="52.4" width="4.11" height="4.11"/><rect class="cls-5" x="62.16" y="60.03" width="4.11" height="4.11"/><rect class="cls-5" x="70.59" y="60.03" width="4.11" height="4.11"/><rect class="cls-5" x="79.03" y="60.03" width="4.11" height="4.11"/><rect class="cls-5" x="62.16" y="67.66" width="4.11" height="4.11"/><rect class="cls-5" x="70.59" y="67.66" width="4.11" height="4.11"/><rect class="cls-5" x="79.03" y="67.66" width="4.11" height="4.11"/><path class="cls-6" d="M55.49,71.78H32.44a.67.67,0,0,1-.66-.66.66.66,0,0,1,.66-.65H55.49a.65.65,0,0,1,.65.65.66.66,0,0,1-.65.66Z"/><path class="cls-6" d="M55.49,67.66H32.44a.66.66,0,0,1-.66-.65.67.67,0,0,1,.66-.66H55.49a.66.66,0,0,1,.65.66.65.65,0,0,1-.65.65Z"/><path class="cls-7" d="M37.32,61.27a2.44,2.44,0,1,1-2.44-2.44,2.44,2.44,0,0,1,2.44,2.44Z"/><path class="cls-8" d="M46.4,61.27A2.44,2.44,0,1,1,44,58.83a2.44,2.44,0,0,1,2.44,2.44Z"/><path class="cls-5" d="M55.49,61.27A2.45,2.45,0,1,1,53,58.83a2.45,2.45,0,0,1,2.45,2.44Z"/><rect class="cls-3" x="40.26" y="48.27" width="7.4" height="6.6"/><path class="cls-5" d="M50.13,44.34V54.87H45.79V49.34H42.13v5.53H37.8V44.34L44,38.48Z"/><path class="cls-9" d="M52.79,47.52a.67.67,0,0,1-.46-.18l-8.37-8-8.37,8a.65.65,0,0,1-.93,0,.64.64,0,0,1,0-.92L43.51,38a.67.67,0,0,1,.91,0l8.82,8.39a.65.65,0,0,1,0,.92.62.62,0,0,1-.47.21Z"/><path class="cls-8" d="M45.35,44.7A1.39,1.39,0,1,1,44,43.32a1.39,1.39,0,0,1,1.39,1.38Z"/></g></g></svg>